<svg id="Grupo_59085" data-name="Grupo 59085" xmlns="http://www.w3.org/2000/svg" xmlns:xlink="http://www.w3.org/1999/xlink" width="59.999" height="60.004" viewBox="0 0 59.999 60.004">
  <defs>
    <clipPath id="clip-path">
      <path id="Trazado_102213" data-name="Trazado 102213" d="M29.969,0l-2.9.146c-.208.018-.414.049-.619.08-.119.018-.238.035-.376.053l-1.925.3c-.468.09-.931.211-1.38.328l-.52.134a.554.554,0,0,0-.4.682l1.3,4.841a24.241,24.241,0,0,0-4.871,2.022L15.762,4.243a.556.556,0,0,0-.769-.2L13.321,5.065c-.42.292-.829.6-1.237.908l-1.126.846c-.158.132-.31.271-.463.409L8.766,8.807,7.207,10.519c-.131.144-.261.289-.413.467l-.868,1.156c-.294.392-.588.785-.879,1.211L4.042,15a.556.556,0,0,0,.2.771l4.346,2.513a24.186,24.186,0,0,0-2.022,4.871l-4.841-1.3a.556.556,0,0,0-.683.4L.9,22.781c-.116.446-.237.906-.331,1.4L.236,26.364c-.037.239-.074.48-.091.728L0,30.028l.145,2.89c.017.244.054.484.091.723l.34,2.206c.091.469.212.932.328,1.381l.134.519a.556.556,0,0,0,.683.4l4.841-1.3a24.2,24.2,0,0,0,2.022,4.871L4.238,44.237a.555.555,0,0,0-.2.77l1.021,1.668c.274.4.567.792.86,1.184l.894,1.187c.127.148.257.292.387.435l1.6,1.751L10.5,52.777c.153.139.305.277.487.429l1.071.8c.419.316.839.633,1.3.944l1.644,1a.555.555,0,0,0,.771-.2l2.513-4.346a24.211,24.211,0,0,0,4.871,2.021l-1.3,4.841a.554.554,0,0,0,.4.682l.514.132c.451.117.916.238,1.407.334l2.215.341c.226.035.453.071.7.092L30.024,60l2.9-.146c.224-.02.448-.055.671-.09l2.24-.345c.465-.089.92-.208,1.361-.322l.545-.14a.556.556,0,0,0,.4-.683l-1.3-4.846a24.239,24.239,0,0,0,4.87-2.016l2.513,4.346a.555.555,0,0,0,.771.2l1.668-1.02c.386-.264.76-.545,1.134-.827l1.226-.923c.166-.139.329-.285.491-.431l1.7-1.557,1.428-1.563c.178-.2.356-.391.543-.615l.589-.775c.128-.174.257-.347.386-.521.257-.345.516-.692.78-1.073l1-1.644a.555.555,0,0,0-.2-.769l-4.822-2.789a.555.555,0,1,0-.556.961l4.33,2.5-.687,1.13c-.239.344-.489.68-.739,1.016-.132.176-.263.353-.386.521l-.566.745c-.161.191-.328.374-.5.56l-1.392,1.527-1.658,1.515c-.153.138-.307.277-.44.39l-1.2.9c-.362.272-.722.543-1.07.783l-1.158.708-2.5-4.329a.555.555,0,0,0-.76-.2,23.086,23.086,0,0,1-5.619,2.327.556.556,0,0,0-.394.68l1.294,4.834-.009,0c-.443.115-.862.224-1.271.3l-1.9.293c-.109.015-.217.032-.326.049-.2.031-.4.063-.575.08l-2.827.144-2.857-.143c-.2-.018-.4-.05-.606-.082l-2.2-.338c-.428-.084-.87-.2-1.3-.309l1.293-4.829a.553.553,0,0,0-.056-.422.559.559,0,0,0-.338-.259,23.1,23.1,0,0,1-5.62-2.332.554.554,0,0,0-.759.2l-2.5,4.329-1.134-.693c-.418-.286-.825-.593-1.23-.9l-1.049-.786c-.146-.123-.288-.252-.43-.381L9.587,50.448l-1.558-1.71c-.124-.138-.249-.276-.347-.389l-.87-1.157c-.283-.379-.567-.757-.817-1.121l-.708-1.159,4.329-2.5a.554.554,0,0,0,.2-.76,23.091,23.091,0,0,1-2.332-5.619.555.555,0,0,0-.68-.393l-4.83,1.293c-.111-.426-.226-.867-.305-1.275l-.337-2.185c-.032-.208-.066-.418-.08-.623l-.144-2.82.143-2.865c.015-.211.048-.42.081-.628l.333-2.166c.083-.432.193-.852.308-1.3l4.83,1.294a.556.556,0,0,0,.68-.394,23.083,23.083,0,0,1,2.332-5.619.555.555,0,0,0-.2-.76l-4.329-2.5.693-1.135c.266-.389.551-.768.836-1.148l.843-1.125c.123-.143.249-.282.374-.421l1.519-1.67,1.691-1.543c.142-.129.284-.258.406-.361l1.105-.829c.4-.3.792-.6,1.173-.864l1.158-.7,2.5,4.33a.555.555,0,0,0,.759.2,23.1,23.1,0,0,1,5.62-2.333.555.555,0,0,0,.393-.68L23.068,1.981c.426-.111.868-.225,1.276-.3l1.887-.3c.128-.016.257-.035.387-.055.182-.028.364-.055.53-.07L29.97,1.11l2.862.143c.179.016.359.043.538.07.131.02.261.039.374.053l1.886.3c.428.083.846.191,1.287.306l.014,0L35.637,6.817a.556.556,0,0,0,.394.68A23.082,23.082,0,0,1,41.65,9.824a.557.557,0,0,0,.76-.2l2.5-4.331,1.13.687c.361.25.71.513,1.06.777l1.216.913c.156.132.31.27.463.408l1.623,1.481,1.422,1.556c.17.187.34.372.485.543l.577.759c.128.175.259.35.389.525.251.337.5.674.724.99l.7,1.159-4.33,2.5a.556.556,0,0,0-.2.761,22.887,22.887,0,0,1,2.332,5.619.557.557,0,0,0,.681.394l4.83-1.294.01.039c.114.431.222.839.3,1.237l.292,1.888c.016.13.035.261.055.391.028.181.055.362.069.529l.144,2.82-.143,2.855c-.016.184-.044.365-.071.545-.02.131-.039.26-.053.373l-.29,1.884c-.082.417-.195.846-.3,1.261l-.009.036-4.83-1.293A.555.555,0,1,0,52.9,36.71l5.372,1.439a.556.556,0,0,0,.683-.4c.047-.19.1-.379.147-.569.114-.432.232-.879.324-1.353l.3-1.922c.015-.12.033-.24.052-.36.03-.2.061-.409.08-.631L60,29.976l-.146-2.9c-.018-.206-.048-.411-.079-.615-.018-.12-.036-.241-.054-.378l-.3-1.925c-.087-.455-.205-.9-.319-1.331-.05-.19-.1-.38-.148-.571a.556.556,0,0,0-.683-.4l-4.841,1.3a24.036,24.036,0,0,0-2.021-4.871l4.345-2.512a.555.555,0,0,0,.2-.77l-1.018-1.672c-.246-.355-.505-.7-.763-1.049-.129-.172-.257-.345-.39-.526l-.6-.788c-.171-.2-.35-.4-.531-.6L51.193,8.773,49.527,7.25c-.162-.146-.325-.292-.514-.45l-1.239-.932c-.362-.273-.723-.544-1.123-.822l-1.644-1a.557.557,0,0,0-.77.2L41.723,8.589a24.177,24.177,0,0,0-4.87-2.017l1.3-4.847a.555.555,0,0,0-.4-.682Q37.47.975,37.2.9C36.757.789,36.3.671,35.822.579L33.9.276c-.121-.015-.242-.033-.362-.051-.2-.03-.405-.06-.627-.08Z" fill="#fff"/>
    </clipPath>
    <clipPath id="clip-path-2">
      <path id="Trazado_102214" data-name="Trazado 102214" d="M44.781,52.22a7.434,7.434,0,1,1,7.433,7.434,7.442,7.442,0,0,1-7.433-7.434m-1.111,0a8.545,8.545,0,1,0,8.544-8.545A8.554,8.554,0,0,0,43.67,52.22" transform="translate(-43.67 -43.675)" fill="#fff"/>
    </clipPath>
    <clipPath id="clip-path-3">
      <path id="Trazado_102215" data-name="Trazado 102215" d="M59.931,23.059v10.4a.556.556,0,0,0,1.111,0v-10.4a.556.556,0,1,0-1.111,0" transform="translate(-59.931 -22.503)" fill="#fff"/>
    </clipPath>
    <clipPath id="clip-path-4">
      <path id="Trazado_102216" data-name="Trazado 102216" d="M29.137,44.827A15.7,15.7,0,0,0,44.821,60.512a.555.555,0,1,0,0-1.111,14.574,14.574,0,0,1,0-29.148.555.555,0,1,0,0-1.111A15.7,15.7,0,0,0,29.137,44.827" transform="translate(-29.137 -29.142)" fill="#fff"/>
    </clipPath>
    <clipPath id="clip-path-5">
      <path id="Trazado_102217" data-name="Trazado 102217" d="M74.087,68.346a.555.555,0,0,0,.2.759L92.85,79.825a.545.545,0,0,0,.277.075.555.555,0,0,0,.278-1.036l-18.56-10.72a.553.553,0,0,0-.759.2" transform="translate(-74.012 -68.068)" fill="#fff"/>
    </clipPath>
    <clipPath id="clip-path-6">
      <path id="Trazado_102218" data-name="Trazado 102218" d="M81.637,38.15a.556.556,0,0,0,.006.786,14.564,14.564,0,0,1,2.391,17.658.555.555,0,1,0,.961.557,15.674,15.674,0,0,0-2.573-19.007.555.555,0,0,0-.785.006" transform="translate(-81.477 -37.984)" fill="#fff"/>
    </clipPath>
    <clipPath id="clip-path-7">
      <path id="Trazado_102219" data-name="Trazado 102219" d="M55.675,17.946A2.647,2.647,0,1,0,58.322,15.3a2.646,2.646,0,0,0-2.647,2.646" transform="translate(-55.675 -15.3)" fill="#fff"/>
    </clipPath>
    <clipPath id="clip-path-8">
      <path id="Trazado_102220" data-name="Trazado 102220" d="M77.22,35.936a2.647,2.647,0,1,0,2.647-2.647,2.647,2.647,0,0,0-2.647,2.647" transform="translate(-77.22 -33.289)" fill="#fff"/>
    </clipPath>
    <clipPath id="clip-path-9">
      <path id="Trazado_102221" data-name="Trazado 102221" d="M55.675,89.409a2.647,2.647,0,1,0,2.647-2.647,2.647,2.647,0,0,0-2.647,2.647" transform="translate(-55.675 -86.762)" fill="#fff"/>
    </clipPath>
  </defs>
  <g id="Grupo_53878" data-name="Grupo 53878" transform="translate(0)">
    <g id="Grupo_53861" data-name="Grupo 53861">
      <g id="Grupo_53860" data-name="Grupo 53860" clip-path="url(#clip-path)">
        <rect id="Rectángulo_5891" data-name="Rectángulo 5891" width="64.273" height="64.268" transform="matrix(0.074, -0.997, 0.997, 0.074, -4.421, 59.677)" fill="#fff"/>
      </g>
    </g>
    <g id="Grupo_53863" data-name="Grupo 53863" transform="translate(21.455 21.457)">
      <g id="Grupo_53862" data-name="Grupo 53862" clip-path="url(#clip-path-2)">
        <rect id="Rectángulo_5892" data-name="Rectángulo 5892" width="18.306" height="18.306" transform="translate(-1.259 16.997) rotate(-85.764)" fill="#fff"/>
      </g>
    </g>
    <g id="Grupo_53865" data-name="Grupo 53865" transform="translate(29.444 11.056)">
      <g id="Grupo_53864" data-name="Grupo 53864" clip-path="url(#clip-path-3)">
        <rect id="Rectángulo_5893" data-name="Rectángulo 5893" width="11.563" height="1.959" transform="translate(-0.848 11.45) rotate(-85.764)" fill="#fff"/>
      </g>
    </g>
    <g id="Grupo_53867" data-name="Grupo 53867" transform="translate(14.315 14.317)">
      <g id="Grupo_53866" data-name="Grupo 53866" clip-path="url(#clip-path-4)">
        <rect id="Rectángulo_5894" data-name="Rectángulo 5894" width="32.484" height="18.513" transform="translate(-2.311 31.199) rotate(-85.764)" fill="#fff"/>
      </g>
    </g>
    <g id="Grupo_53869" data-name="Grupo 53869" transform="translate(36.362 33.442)">
      <g id="Grupo_53868" data-name="Grupo 53868" clip-path="url(#clip-path-5)">
        <rect id="Rectángulo_5895" data-name="Rectángulo 5895" width="13.264" height="20.65" transform="translate(-0.951 11.767) rotate(-85.764)" fill="#fff"/>
      </g>
    </g>
    <g id="Grupo_53871" data-name="Grupo 53871" transform="translate(40.029 18.661)">
      <g id="Grupo_53870" data-name="Grupo 53870" clip-path="url(#clip-path-6)">
        <rect id="Rectángulo_5896" data-name="Rectángulo 5896" width="19.81" height="7.096" transform="matrix(0.074, -0.997, 0.997, 0.074, -1.488, 19.337)" fill="#fff"/>
      </g>
    </g>
    <g id="Grupo_53873" data-name="Grupo 53873" transform="translate(27.353 7.517)">
      <g id="Grupo_53872" data-name="Grupo 53872" clip-path="url(#clip-path-7)">
        <rect id="Rectángulo_5897" data-name="Rectángulo 5897" width="5.669" height="5.67" transform="translate(-0.39 5.264) rotate(-85.764)" fill="#fff"/>
      </g>
    </g>
    <g id="Grupo_53875" data-name="Grupo 53875" transform="translate(37.938 16.355)">
      <g id="Grupo_53874" data-name="Grupo 53874" clip-path="url(#clip-path-8)">
        <rect id="Rectángulo_5898" data-name="Rectángulo 5898" width="5.67" height="5.67" transform="translate(-0.39 5.264) rotate(-85.764)" fill="#fff"/>
      </g>
    </g>
    <g id="Grupo_53877" data-name="Grupo 53877" transform="translate(27.353 42.626)">
      <g id="Grupo_53876" data-name="Grupo 53876" clip-path="url(#clip-path-9)">
        <rect id="Rectángulo_5899" data-name="Rectángulo 5899" width="5.669" height="5.67" transform="matrix(0.074, -0.997, 0.997, 0.074, -0.39, 5.264)" fill="#fff"/>
      </g>
    </g>
  </g>
</svg>
