<svg xmlns="http://www.w3.org/2000/svg" width="42.086" height="66.218" viewBox="0 0 42.086 66.218">
  <g id="Grupo_565461" data-name="Grupo 565461" transform="translate(-47.959 -361.271)">
    <g id="Grupo_565457" data-name="Grupo 565457">
      <g id="Grupo_565454" data-name="Grupo 565454">
        <rect id="Rectángulo_61451" data-name="Rectángulo 61451" width="9.692" height="3.436" transform="translate(67.401 386.491) rotate(-68.434)" fill="#fd9800"/>
      </g>
      <g id="Grupo_565456" data-name="Grupo 565456">
        <g id="Grupo_565455" data-name="Grupo 565455">
          <path id="Trazado_222719" data-name="Trazado 222719" d="M75.378,380.3l-1.008-6.781L69,377.781Z" fill="#fd9800"/>
        </g>
      </g>
    </g>
    <path id="Trazado_222720" data-name="Trazado 222720" d="M76.192,387.123c0,.831-3.219,1.505-7.19,1.505s-7.191-.674-7.191-1.505,3.219-1.5,7.191-1.5S76.192,386.292,76.192,387.123Z" fill="#0f303f"/>
    <g id="Grupo_565458" data-name="Grupo 565458">
      <path id="Trazado_222721" data-name="Trazado 222721" d="M53.4,386.977V366.4H69.125v-5.128H52.254a4.3,4.3,0,0,0-4.3,4.3v57.624a4.3,4.3,0,0,0,4.3,4.3H69.125V386.977Z" fill="#c12106"/>
      <path id="Trazado_222722" data-name="Trazado 222722" d="M85.75,361.271H69.125V366.4H84.608v20.578H69.125v40.512H85.75a4.3,4.3,0,0,0,4.295-4.3V365.568A4.3,4.3,0,0,0,85.75,361.271Z" fill="#a81d05"/>
    </g>
    <ellipse id="Elipse_5079" data-name="Elipse 5079" cx="13.42" cy="13.429" rx="13.42" ry="13.429" transform="translate(55.563 395.181) rotate(-0.083)" fill="#fff"/>
    <path id="Trazado_222723" data-name="Trazado 222723" d="M69.989,392.226A.986.986,0,1,1,69,391.24.986.986,0,0,1,69.989,392.226Z" fill="#fff"/>
    <path id="Trazado_222724" data-name="Trazado 222724" d="M61.68,393.926a.987.987,0,1,1-1.348-.361A.987.987,0,0,1,61.68,393.926Z" fill="#fff"/>
    <path id="Trazado_222725" data-name="Trazado 222725" d="M55.333,399.553a.987.987,0,1,1-1.348.361A.987.987,0,0,1,55.333,399.553Z" fill="#fff"/>
    <path id="Trazado_222726" data-name="Trazado 222726" d="M52.649,407.6a.988.988,0,1,1-.987.989A.987.987,0,0,1,52.649,407.6Z" fill="#fff"/>
    <path id="Trazado_222727" data-name="Trazado 222727" d="M54.346,415.917a.988.988,0,1,1-.36,1.35A.987.987,0,0,1,54.346,415.917Z" fill="#fff"/>
    <path id="Trazado_222728" data-name="Trazado 222728" d="M59.971,422.269a.986.986,0,1,1,.362,1.347A.985.985,0,0,1,59.971,422.269Z" fill="#fff"/>
    <path id="Trazado_222729" data-name="Trazado 222729" d="M68.016,424.955a.986.986,0,1,1,.986.986A.989.989,0,0,1,68.016,424.955Z" fill="#fff"/>
    <path id="Trazado_222730" data-name="Trazado 222730" d="M76.324,423.255a.986.986,0,1,1,1.348.361A.988.988,0,0,1,76.324,423.255Z" fill="#fff"/>
    <path id="Trazado_222731" data-name="Trazado 222731" d="M82.671,417.628a.987.987,0,1,1,1.347-.363A.991.991,0,0,1,82.671,417.628Z" fill="#fff"/>
    <path id="Trazado_222732" data-name="Trazado 222732" d="M85.355,409.577a.986.986,0,1,1,.987-.989A.989.989,0,0,1,85.355,409.577Z" fill="#fff"/>
    <path id="Trazado_222733" data-name="Trazado 222733" d="M83.658,401.263a.987.987,0,1,1,.36-1.349A.988.988,0,0,1,83.658,401.263Z" fill="#fff"/>
    <path id="Trazado_222734" data-name="Trazado 222734" d="M78.033,394.912a.986.986,0,1,1-.361-1.347A.988.988,0,0,1,78.033,394.912Z" fill="#fff"/>
    <g id="Grupo_565459" data-name="Grupo 565459">
      <path id="Trazado_222735" data-name="Trazado 222735" d="M82.371,371.952a112.227,112.227,0,0,0-26.493-.029l-.1-.854a113.185,113.185,0,0,1,26.7.029Z" fill="#2c5871"/>
    </g>
    <g id="Grupo_565460" data-name="Grupo 565460">
      <path id="Trazado_222736" data-name="Trazado 222736" d="M60.988,400.716l3.237,5.61a9.945,9.945,0,0,0,4.347,7.535l3.237,5.613,2.6-1.505L63.592,399.211Z" fill="#2c5871"/>
      <path id="Trazado_222737" data-name="Trazado 222737" d="M69.431,403.318l-3.237-5.611-2.6,1.5,10.821,18.758,2.6-1.5-3.237-5.611a9.935,9.935,0,0,0-4.348-7.536Z" fill="#0f303f"/>
    </g>
  </g>
</svg>
