<svg xmlns="http://www.w3.org/2000/svg" width="35.223" height="32.688" viewBox="0 0 35.223 32.688">
  <g id="Grupo_565474" data-name="Grupo 565474" transform="translate(-895.453 -1566.509)">
    <g id="Grupo_565473" data-name="Grupo 565473">
      <path id="Trazado_222183" data-name="Trazado 222183" d="M157.25,397.329A13.654,13.654,0,1,0,170.9,383.675" transform="translate(738.203 1182.834)" fill="#faae0e"/>
      <g id="Grupo_565360" data-name="Grupo 565360" transform="translate(905.548 1582.009)">
        <g id="Grupo_565310" data-name="Grupo 565310" transform="translate(0.003)">
          <g id="Grupo_565305" data-name="Grupo 565305" transform="translate(0 0.006)">
            <g id="Grupo_565304" data-name="Grupo 565304">
              <path id="Trazado_222185" data-name="Trazado 222185" d="M179.984,418.783a.434.434,0,0,1-.306-.739.431.431,0,0,1,.739.306.437.437,0,0,1-.125.305A.431.431,0,0,1,179.984,418.783Z" transform="translate(-179.553 -417.922)" fill="#12263f"/>
            </g>
          </g>
          <g id="Grupo_565307" data-name="Grupo 565307" transform="translate(2.204)">
            <g id="Grupo_565306" data-name="Grupo 565306">
              <path id="Trazado_222186" data-name="Trazado 222186" d="M204.27,418.342a.433.433,0,0,1,.433-.433h0a.432.432,0,0,1,.433.433h0a.434.434,0,0,1-.433.433h0A.435.435,0,0,1,204.27,418.342Zm-2.2,0a.433.433,0,0,1,.433-.433h0a.432.432,0,0,1,.433.433h0a.434.434,0,0,1-.433.433h0A.435.435,0,0,1,202.065,418.342Zm-2.2,0a.432.432,0,0,1,.433-.433h0a.433.433,0,0,1,.433.433h0a.435.435,0,0,1-.433.433h0A.433.433,0,0,1,199.86,418.342Zm-2.205,0a.432.432,0,0,1,.434-.433h0a.433.433,0,0,1,.433.433h0a.435.435,0,0,1-.433.433h0A.434.434,0,0,1,197.654,418.342Zm-2.2,0a.431.431,0,0,1,.431-.433h0a.433.433,0,0,1,.435.433h0a.435.435,0,0,1-.435.433h0A.433.433,0,0,1,195.449,418.342Zm-2.207,0a.433.433,0,0,1,.433-.433h0a.431.431,0,0,1,.433.433h0a.433.433,0,0,1-.433.433h0A.435.435,0,0,1,193.242,418.342Zm-2.2,0a.433.433,0,0,1,.433-.433h0a.431.431,0,0,1,.433.433h0a.433.433,0,0,1-.433.433h0A.435.435,0,0,1,191.037,418.342Zm-2.2,0a.433.433,0,0,1,.433-.433h0a.433.433,0,0,1,.433.433h0a.435.435,0,0,1-.433.433h0A.435.435,0,0,1,188.832,418.342Zm-2.2,0a.432.432,0,0,1,.433-.433h0a.433.433,0,0,1,.433.433h0a.435.435,0,0,1-.433.433h0A.434.434,0,0,1,186.627,418.342Zm-2.205,0a.432.432,0,0,1,.433-.433h0a.433.433,0,0,1,.433.433h0a.435.435,0,0,1-.433.433h0A.434.434,0,0,1,184.422,418.342Z" transform="translate(-184.422 -417.909)" fill="#12263f"/>
            </g>
          </g>
          <g id="Grupo_565309" data-name="Grupo 565309" transform="translate(24.257 0.006)">
            <g id="Grupo_565308" data-name="Grupo 565308">
              <path id="Trazado_222187" data-name="Trazado 222187" d="M233.562,418.783a.431.431,0,0,1-.306-.128.429.429,0,0,1,0-.611.433.433,0,0,1,.741.306.44.44,0,0,1-.128.305A.431.431,0,0,1,233.562,418.783Z" transform="translate(-233.129 -417.922)" fill="#12263f"/>
            </g>
          </g>
        </g>
        <g id="Grupo_565317" data-name="Grupo 565317" transform="translate(0.003 2.385)">
          <g id="Grupo_565312" data-name="Grupo 565312" transform="translate(0 0.006)">
            <g id="Grupo_565311" data-name="Grupo 565311">
              <path id="Trazado_222188" data-name="Trazado 222188" d="M179.984,424.049a.435.435,0,0,1-.306-.741.451.451,0,0,1,.613,0,.434.434,0,0,1-.308.741Z" transform="translate(-179.553 -423.189)" fill="#12263f"/>
            </g>
          </g>
          <g id="Grupo_565314" data-name="Grupo 565314" transform="translate(2.204)">
            <g id="Grupo_565313" data-name="Grupo 565313">
              <path id="Trazado_222189" data-name="Trazado 222189" d="M204.27,423.609a.433.433,0,0,1,.433-.433h0a.432.432,0,0,1,.433.433h0a.433.433,0,0,1-.433.433h0A.434.434,0,0,1,204.27,423.609Zm-2.2,0a.433.433,0,0,1,.433-.433h0a.433.433,0,0,1,.433.433h0a.435.435,0,0,1-.433.433h0A.434.434,0,0,1,202.065,423.609Zm-2.2,0a.432.432,0,0,1,.433-.433h0a.433.433,0,0,1,.433.433h0a.435.435,0,0,1-.433.433h0A.433.433,0,0,1,199.86,423.609Zm-2.205,0a.432.432,0,0,1,.434-.433h0a.433.433,0,0,1,.433.433h0a.434.434,0,0,1-.433.433h0A.433.433,0,0,1,197.654,423.609Zm-2.2,0a.431.431,0,0,1,.431-.433h0a.432.432,0,0,1,.433.433h0a.433.433,0,0,1-.433.433h0A.433.433,0,0,1,195.449,423.609Zm-2.207,0a.433.433,0,0,1,.433-.433h0a.432.432,0,0,1,.433.433h0a.433.433,0,0,1-.433.433h0A.435.435,0,0,1,193.242,423.609Zm-2.2,0a.433.433,0,0,1,.433-.433h0a.432.432,0,0,1,.433.433h0a.433.433,0,0,1-.433.433h0A.435.435,0,0,1,191.037,423.609Zm-2.2,0a.432.432,0,0,1,.433-.433h0a.433.433,0,0,1,.433.433h0a.434.434,0,0,1-.433.433h0A.433.433,0,0,1,188.832,423.609Zm-2.2,0a.432.432,0,0,1,.433-.433h0a.433.433,0,0,1,.433.433h0a.435.435,0,0,1-.433.433h0A.433.433,0,0,1,186.627,423.609Zm-2.205,0a.432.432,0,0,1,.433-.433h0a.433.433,0,0,1,.433.433h0a.435.435,0,0,1-.433.433h0A.433.433,0,0,1,184.422,423.609Z" transform="translate(-184.422 -423.176)" fill="#12263f"/>
            </g>
          </g>
          <g id="Grupo_565316" data-name="Grupo 565316" transform="translate(24.257 0.006)">
            <g id="Grupo_565315" data-name="Grupo 565315">
              <path id="Trazado_222190" data-name="Trazado 222190" d="M233.562,424.049a.433.433,0,0,1-.306-.741.451.451,0,0,1,.613,0,.431.431,0,0,1,0,.613A.439.439,0,0,1,233.562,424.049Z" transform="translate(-233.129 -423.189)" fill="#12263f"/>
            </g>
          </g>
        </g>
        <g id="Grupo_565324" data-name="Grupo 565324" transform="translate(0 4.694)">
          <g id="Grupo_565319" data-name="Grupo 565319" transform="translate(0 0.007)">
            <g id="Grupo_565318" data-name="Grupo 565318">
              <path id="Trazado_222191" data-name="Trazado 222191" d="M179.983,429.152a.432.432,0,0,1-.436-.433.439.439,0,0,1,.128-.306.452.452,0,0,1,.614,0,.438.438,0,0,1,0,.613A.443.443,0,0,1,179.983,429.152Z" transform="translate(-179.547 -428.293)" fill="#12263f"/>
            </g>
          </g>
          <g id="Grupo_565321" data-name="Grupo 565321" transform="translate(2.207)">
            <g id="Grupo_565320" data-name="Grupo 565320">
              <path id="Trazado_222192" data-name="Trazado 222192" d="M204.27,428.709a.434.434,0,0,1,.433-.433h0a.433.433,0,0,1,.433.433h0a.432.432,0,0,1-.433.433h0A.433.433,0,0,1,204.27,428.709Zm-2.2,0a.434.434,0,0,1,.433-.433h0a.434.434,0,0,1,.433.433h0a.433.433,0,0,1-.433.433h0A.433.433,0,0,1,202.065,428.709Zm-2.2,0a.433.433,0,0,1,.433-.433h0a.434.434,0,0,1,.433.433h0a.433.433,0,0,1-.433.433h0A.432.432,0,0,1,199.86,428.709Zm-2.205,0a.433.433,0,0,1,.434-.433h0a.434.434,0,0,1,.433.433h0a.433.433,0,0,1-.433.433h0A.432.432,0,0,1,197.654,428.709Zm-2.207,0a.434.434,0,0,1,.433-.433h0a.433.433,0,0,1,.433.433h0a.432.432,0,0,1-.433.433h0A.433.433,0,0,1,195.447,428.709Zm-2.2,0a.434.434,0,0,1,.433-.433h0a.433.433,0,0,1,.433.433h0a.432.432,0,0,1-.433.433h0A.433.433,0,0,1,193.242,428.709Zm-2.2,0a.434.434,0,0,1,.433-.433h0a.433.433,0,0,1,.433.433h0a.432.432,0,0,1-.433.433h0A.433.433,0,0,1,191.037,428.709Zm-2.2,0a.434.434,0,0,1,.433-.433h0a.434.434,0,0,1,.433.433h0a.433.433,0,0,1-.433.433h0A.433.433,0,0,1,188.832,428.709Zm-2.2,0a.433.433,0,0,1,.433-.433h0a.434.434,0,0,1,.433.433h0a.433.433,0,0,1-.433.433h0A.432.432,0,0,1,186.627,428.709Zm-2.205,0a.433.433,0,0,1,.433-.433h0a.434.434,0,0,1,.433.433h0a.433.433,0,0,1-.433.433h0A.432.432,0,0,1,184.422,428.709Z" transform="translate(-184.422 -428.276)" fill="#12263f"/>
            </g>
          </g>
          <g id="Grupo_565323" data-name="Grupo 565323" transform="translate(24.26 0.007)">
            <g id="Grupo_565322" data-name="Grupo 565322">
              <path id="Trazado_222193" data-name="Trazado 222193" d="M233.562,429.152a.44.44,0,0,1-.306-.125.445.445,0,0,1-.128-.308.439.439,0,0,1,.128-.306.451.451,0,0,1,.613,0,.438.438,0,0,1,0,.613A.444.444,0,0,1,233.562,429.152Z" transform="translate(-233.129 -428.293)" fill="#12263f"/>
            </g>
          </g>
        </g>
        <g id="Grupo_565331" data-name="Grupo 565331" transform="translate(0 7.079)">
          <g id="Grupo_565326" data-name="Grupo 565326" transform="translate(0 0.005)">
            <g id="Grupo_565325" data-name="Grupo 565325">
              <path id="Trazado_222194" data-name="Trazado 222194" d="M179.983,434.416a.433.433,0,0,1-.308-.741.451.451,0,0,1,.614,0,.444.444,0,0,1,.125.308.433.433,0,0,1-.431.433Z" transform="translate(-179.547 -433.555)" fill="#12263f"/>
            </g>
          </g>
          <g id="Grupo_565328" data-name="Grupo 565328" transform="translate(2.207)">
            <g id="Grupo_565327" data-name="Grupo 565327">
              <path id="Trazado_222195" data-name="Trazado 222195" d="M204.27,433.977a.433.433,0,0,1,.433-.433h0a.432.432,0,0,1,.433.433h0a.433.433,0,0,1-.433.433h0A.434.434,0,0,1,204.27,433.977Zm-2.2,0a.432.432,0,0,1,.433-.433h0a.433.433,0,0,1,.433.433h0a.435.435,0,0,1-.433.433h0A.433.433,0,0,1,202.065,433.977Zm-2.2,0a.431.431,0,0,1,.433-.433h0a.433.433,0,0,1,.433.433h0a.435.435,0,0,1-.433.433h0A.433.433,0,0,1,199.86,433.977Zm-2.205,0a.432.432,0,0,1,.434-.433h0a.433.433,0,0,1,.433.433h0a.434.434,0,0,1-.433.433h0A.433.433,0,0,1,197.654,433.977Zm-2.207,0a.433.433,0,0,1,.433-.433h0a.433.433,0,0,1,.435.433h0a.434.434,0,0,1-.435.433h0A.435.435,0,0,1,195.447,433.977Zm-2.2,0a.433.433,0,0,1,.433-.433h0a.431.431,0,0,1,.433.433h0a.433.433,0,0,1-.433.433h0A.435.435,0,0,1,193.242,433.977Zm-2.2,0a.433.433,0,0,1,.433-.433h0a.431.431,0,0,1,.433.433h0a.433.433,0,0,1-.433.433h0A.435.435,0,0,1,191.037,433.977Zm-2.2,0a.432.432,0,0,1,.433-.433h0a.433.433,0,0,1,.433.433h0a.434.434,0,0,1-.433.433h0A.433.433,0,0,1,188.832,433.977Zm-2.2,0a.432.432,0,0,1,.433-.433h0a.433.433,0,0,1,.433.433h0a.435.435,0,0,1-.433.433h0A.433.433,0,0,1,186.627,433.977Zm-2.205,0a.432.432,0,0,1,.433-.433h0a.433.433,0,0,1,.433.433h0a.435.435,0,0,1-.433.433h0A.433.433,0,0,1,184.422,433.977Z" transform="translate(-184.422 -433.544)" fill="#12263f"/>
            </g>
          </g>
          <g id="Grupo_565330" data-name="Grupo 565330" transform="translate(24.26 0.005)">
            <g id="Grupo_565329" data-name="Grupo 565329">
              <path id="Trazado_222196" data-name="Trazado 222196" d="M233.562,434.416a.438.438,0,0,1-.306-.126.446.446,0,0,1-.128-.307.437.437,0,0,1,.128-.306.434.434,0,0,1,.741.306.437.437,0,0,1-.436.433Z" transform="translate(-233.129 -433.555)" fill="#12263f"/>
            </g>
          </g>
        </g>
        <g id="Grupo_565338" data-name="Grupo 565338" transform="translate(0.003 9.243)">
          <g id="Grupo_565333" data-name="Grupo 565333" transform="translate(0 0.007)">
            <g id="Grupo_565332" data-name="Grupo 565332">
              <path id="Trazado_222197" data-name="Trazado 222197" d="M179.984,439.2a.428.428,0,0,1-.431-.433.435.435,0,0,1,.125-.306.45.45,0,0,1,.613,0,.438.438,0,0,1,.125.306.429.429,0,0,1-.433.433Z" transform="translate(-179.553 -438.338)" fill="#12263f"/>
            </g>
          </g>
          <g id="Grupo_565335" data-name="Grupo 565335" transform="translate(2.204)">
            <g id="Grupo_565334" data-name="Grupo 565334">
              <path id="Trazado_222198" data-name="Trazado 222198" d="M204.27,438.756a.434.434,0,0,1,.433-.433h0a.433.433,0,0,1,.433.433h0a.432.432,0,0,1-.433.433h0A.433.433,0,0,1,204.27,438.756Zm-2.2,0a.433.433,0,0,1,.433-.433h0a.433.433,0,0,1,.433.433h0a.432.432,0,0,1-.433.433h0A.432.432,0,0,1,202.065,438.756Zm-2.2,0a.433.433,0,0,1,.433-.433h0a.434.434,0,0,1,.433.433h0a.434.434,0,0,1-.433.433h0A.432.432,0,0,1,199.86,438.756Zm-2.205,0a.433.433,0,0,1,.434-.433h0a.434.434,0,0,1,.433.433h0a.433.433,0,0,1-.433.433h0A.432.432,0,0,1,197.654,438.756Zm-2.207,0a.435.435,0,0,1,.436-.433h0a.432.432,0,0,1,.431.433h0a.431.431,0,0,1-.431.433h0A.434.434,0,0,1,195.447,438.756Zm-2.2,0a.434.434,0,0,1,.433-.433h0a.433.433,0,0,1,.433.433h0a.432.432,0,0,1-.433.433h0A.434.434,0,0,1,193.242,438.756Zm-2.2,0a.434.434,0,0,1,.433-.433h0a.433.433,0,0,1,.433.433h0a.432.432,0,0,1-.433.433h0A.434.434,0,0,1,191.037,438.756Zm-2.2,0a.433.433,0,0,1,.433-.433h0a.434.434,0,0,1,.433.433h0a.433.433,0,0,1-.433.433h0A.432.432,0,0,1,188.832,438.756Zm-2.2,0a.433.433,0,0,1,.433-.433h0a.434.434,0,0,1,.433.433h0a.433.433,0,0,1-.433.433h0A.432.432,0,0,1,186.627,438.756Zm-2.205,0a.433.433,0,0,1,.431-.433h0a.435.435,0,0,1,.436.433h0a.434.434,0,0,1-.436.433h0A.432.432,0,0,1,184.422,438.756Z" transform="translate(-184.422 -438.323)" fill="#12263f"/>
            </g>
          </g>
          <g id="Grupo_565337" data-name="Grupo 565337" transform="translate(24.257 0.007)">
            <g id="Grupo_565336" data-name="Grupo 565336">
              <path id="Trazado_222199" data-name="Trazado 222199" d="M233.565,439.2a.432.432,0,0,1-.308-.739.45.45,0,0,1,.613,0,.438.438,0,0,1,.125.306.429.429,0,0,1-.431.433Z" transform="translate(-233.129 -438.338)" fill="#12263f"/>
            </g>
          </g>
        </g>
        <g id="Grupo_565345" data-name="Grupo 565345" transform="translate(0 11.627)">
          <g id="Grupo_565340" data-name="Grupo 565340" transform="translate(0 0.006)">
            <g id="Grupo_565339" data-name="Grupo 565339">
              <path id="Trazado_222200" data-name="Trazado 222200" d="M179.98,444.463a.431.431,0,0,1-.306-.128.429.429,0,0,1,0-.611.434.434,0,0,1,.741.305.441.441,0,0,1-.128.306A.435.435,0,0,1,179.98,444.463Z" transform="translate(-179.547 -443.602)" fill="#12263f"/>
            </g>
          </g>
          <g id="Grupo_565342" data-name="Grupo 565342" transform="translate(2.207)">
            <g id="Grupo_565341" data-name="Grupo 565341">
              <path id="Trazado_222201" data-name="Trazado 222201" d="M204.27,444.023a.433.433,0,0,1,.433-.433h0a.431.431,0,0,1,.433.433h0a.433.433,0,0,1-.433.433h0A.434.434,0,0,1,204.27,444.023Zm-2.2,0a.432.432,0,0,1,.433-.433h0a.433.433,0,0,1,.433.433h0a.434.434,0,0,1-.433.433h0A.433.433,0,0,1,202.065,444.023Zm-2.2,0a.431.431,0,0,1,.433-.433h0a.433.433,0,0,1,.433.433h0a.434.434,0,0,1-.433.433h0A.433.433,0,0,1,199.86,444.023Zm-2.205,0a.432.432,0,0,1,.434-.433h0a.433.433,0,0,1,.433.433h0a.434.434,0,0,1-.433.433h0A.433.433,0,0,1,197.654,444.023Zm-2.207,0a.433.433,0,0,1,.433-.433h0a.433.433,0,0,1,.435.433h0a.434.434,0,0,1-.435.433h0A.434.434,0,0,1,195.447,444.023Zm-2.2,0a.433.433,0,0,1,.433-.433h0a.431.431,0,0,1,.433.433h0a.433.433,0,0,1-.433.433h0A.434.434,0,0,1,193.242,444.023Zm-2.2,0a.433.433,0,0,1,.433-.433h0a.431.431,0,0,1,.433.433h0a.433.433,0,0,1-.433.433h0A.434.434,0,0,1,191.037,444.023Zm-2.2,0a.431.431,0,0,1,.433-.433h0a.433.433,0,0,1,.433.433h0a.434.434,0,0,1-.433.433h0A.433.433,0,0,1,188.832,444.023Zm-2.2,0a.431.431,0,0,1,.433-.433h0a.433.433,0,0,1,.433.433h0a.434.434,0,0,1-.433.433h0A.433.433,0,0,1,186.627,444.023Zm-2.205,0a.431.431,0,0,1,.433-.433h0a.433.433,0,0,1,.433.433h0a.434.434,0,0,1-.433.433h0A.433.433,0,0,1,184.422,444.023Z" transform="translate(-184.422 -443.59)" fill="#12263f"/>
            </g>
          </g>
          <g id="Grupo_565344" data-name="Grupo 565344" transform="translate(24.262 0.006)">
            <g id="Grupo_565343" data-name="Grupo 565343">
              <path id="Trazado_222202" data-name="Trazado 222202" d="M233.565,444.463a.433.433,0,0,1-.306-.738.447.447,0,0,1,.613,0,.435.435,0,0,1,0,.611A.431.431,0,0,1,233.565,444.463Z" transform="translate(-233.134 -443.603)" fill="#12263f"/>
            </g>
          </g>
        </g>
        <g id="Grupo_565352" data-name="Grupo 565352" transform="translate(0 13.938)">
          <g id="Grupo_565347" data-name="Grupo 565347" transform="translate(0 0.006)">
            <g id="Grupo_565346" data-name="Grupo 565346">
              <path id="Trazado_222203" data-name="Trazado 222203" d="M179.983,449.567a.434.434,0,0,1-.308-.741.452.452,0,0,1,.614,0,.434.434,0,0,1-.306.741Z" transform="translate(-179.547 -448.706)" fill="#12263f"/>
            </g>
          </g>
          <g id="Grupo_565349" data-name="Grupo 565349" transform="translate(2.207)">
            <g id="Grupo_565348" data-name="Grupo 565348">
              <path id="Trazado_222204" data-name="Trazado 222204" d="M204.27,449.127a.433.433,0,0,1,.433-.433h0a.432.432,0,0,1,.433.433h0a.433.433,0,0,1-.433.433h0A.434.434,0,0,1,204.27,449.127Zm-2.2,0a.433.433,0,0,1,.433-.433h0a.433.433,0,0,1,.433.433h0a.435.435,0,0,1-.433.433h0A.434.434,0,0,1,202.065,449.127Zm-2.2,0a.432.432,0,0,1,.433-.433h0a.433.433,0,0,1,.433.433h0a.435.435,0,0,1-.433.433h0A.433.433,0,0,1,199.86,449.127Zm-2.205,0a.432.432,0,0,1,.434-.433h0a.433.433,0,0,1,.433.433h0a.434.434,0,0,1-.433.433h0A.433.433,0,0,1,197.654,449.127Zm-2.207,0a.433.433,0,0,1,.433-.433h0a.432.432,0,0,1,.433.433h0a.433.433,0,0,1-.433.433h0A.435.435,0,0,1,195.447,449.127Zm-2.2,0a.433.433,0,0,1,.433-.433h0a.431.431,0,0,1,.433.433h0a.433.433,0,0,1-.433.433h0A.435.435,0,0,1,193.242,449.127Zm-2.2,0a.433.433,0,0,1,.433-.433h0a.431.431,0,0,1,.433.433h0a.433.433,0,0,1-.433.433h0A.435.435,0,0,1,191.037,449.127Zm-2.2,0a.432.432,0,0,1,.433-.433h0a.433.433,0,0,1,.433.433h0a.434.434,0,0,1-.433.433h0A.433.433,0,0,1,188.832,449.127Zm-2.2,0a.432.432,0,0,1,.433-.433h0a.433.433,0,0,1,.433.433h0a.435.435,0,0,1-.433.433h0A.433.433,0,0,1,186.627,449.127Zm-2.205,0a.432.432,0,0,1,.433-.433h0a.433.433,0,0,1,.433.433h0a.435.435,0,0,1-.433.433h0A.433.433,0,0,1,184.422,449.127Z" transform="translate(-184.422 -448.694)" fill="#12263f"/>
            </g>
          </g>
          <g id="Grupo_565351" data-name="Grupo 565351" transform="translate(24.26 0.006)">
            <g id="Grupo_565350" data-name="Grupo 565350">
              <path id="Trazado_222205" data-name="Trazado 222205" d="M233.562,449.567a.444.444,0,0,1-.306-.128.438.438,0,0,1-.128-.306.445.445,0,0,1,.128-.308.452.452,0,0,1,.613,0,.445.445,0,0,1,.125.308.438.438,0,0,1-.125.306A.444.444,0,0,1,233.562,449.567Z" transform="translate(-233.129 -448.706)" fill="#12263f"/>
            </g>
          </g>
        </g>
        <g id="Grupo_565359" data-name="Grupo 565359" transform="translate(0.003 16.322)">
          <g id="Grupo_565354" data-name="Grupo 565354" transform="translate(0 0.005)">
            <g id="Grupo_565353" data-name="Grupo 565353">
              <path id="Trazado_222206" data-name="Trazado 222206" d="M179.984,454.831a.434.434,0,0,1-.306-.739.447.447,0,0,1,.613,0,.433.433,0,0,1-.308.739Z" transform="translate(-179.553 -453.97)" fill="#12263f"/>
            </g>
          </g>
          <g id="Grupo_565356" data-name="Grupo 565356" transform="translate(2.204)">
            <g id="Grupo_565355" data-name="Grupo 565355">
              <path id="Trazado_222207" data-name="Trazado 222207" d="M204.27,454.391a.434.434,0,0,1,.433-.433h0a.433.433,0,0,1,.433.433h0a.432.432,0,0,1-.433.433h0A.433.433,0,0,1,204.27,454.391Zm-2.2,0a.434.434,0,0,1,.433-.433h0a.434.434,0,0,1,.433.433h0a.433.433,0,0,1-.433.433h0A.433.433,0,0,1,202.065,454.391Zm-2.2,0a.432.432,0,0,1,.433-.433h0a.434.434,0,0,1,.433.433h0a.433.433,0,0,1-.433.433h0A.432.432,0,0,1,199.86,454.391Zm-2.205,0a.433.433,0,0,1,.434-.433h0a.434.434,0,0,1,.433.433h0a.433.433,0,0,1-.433.433h0A.432.432,0,0,1,197.654,454.391Zm-2.207,0a.434.434,0,0,1,.433-.433h0a.432.432,0,0,1,.433.433h0a.432.432,0,0,1-.433.433h0A.433.433,0,0,1,195.447,454.391Zm-2.2,0a.434.434,0,0,1,.433-.433h0a.432.432,0,0,1,.433.433h0a.431.431,0,0,1-.433.433h0A.433.433,0,0,1,193.242,454.391Zm-2.2,0a.434.434,0,0,1,.433-.433h0a.432.432,0,0,1,.433.433h0a.431.431,0,0,1-.433.433h0A.433.433,0,0,1,191.037,454.391Zm-2.2,0a.434.434,0,0,1,.433-.433h0a.434.434,0,0,1,.433.433h0a.433.433,0,0,1-.433.433h0A.433.433,0,0,1,188.832,454.391Zm-2.2,0a.433.433,0,0,1,.433-.433h0a.434.434,0,0,1,.433.433h0a.433.433,0,0,1-.433.433h0A.432.432,0,0,1,186.627,454.391Zm-2.205,0a.433.433,0,0,1,.433-.433h0a.434.434,0,0,1,.433.433h0a.433.433,0,0,1-.433.433h0A.432.432,0,0,1,184.422,454.391Z" transform="translate(-184.422 -453.958)" fill="#12263f"/>
            </g>
          </g>
          <g id="Grupo_565358" data-name="Grupo 565358" transform="translate(24.257 0.006)">
            <g id="Grupo_565357" data-name="Grupo 565357">
              <path id="Trazado_222208" data-name="Trazado 222208" d="M233.562,454.832a.436.436,0,0,1-.306-.126.431.431,0,0,1,0-.613.449.449,0,0,1,.613,0,.431.431,0,0,1,0,.613A.437.437,0,0,1,233.562,454.832Z" transform="translate(-233.129 -453.972)" fill="#12263f"/>
            </g>
          </g>
        </g>
      </g>
    </g>
    <path id="Trazado_222184" data-name="Trazado 222184" d="M170.9,383.675a13.669,13.669,0,0,0-13.653,13.654" transform="translate(738.203 1182.834)" fill="#faae0e"/>
  </g>
</svg>
