<svg xmlns="http://www.w3.org/2000/svg" width="35.871" height="47.37" viewBox="0 0 35.871 47.37">
  <g id="Grupo_565300" data-name="Grupo 565300" transform="translate(-382.78 -374.965)">
    <g id="Grupo_565297" data-name="Grupo 565297">
      <path id="Trazado_222176" data-name="Trazado 222176" d="M382.78,374.965v17.558h17.556V374.965ZM397.61,389.8h-12.1v-12.1h12.1Z" fill="#1a1a1a"/>
    </g>
    <g id="Grupo_565298" data-name="Grupo 565298">
      <path id="Trazado_222177" data-name="Trazado 222177" d="M410.483,422.335a8.169,8.169,0,1,1,8.168-8.168A8.178,8.178,0,0,1,410.483,422.335Zm0-15.337a7.169,7.169,0,1,0,7.168,7.169A7.177,7.177,0,0,0,410.483,407Z" fill="#1a1a1a"/>
    </g>
    <g id="Grupo_565299" data-name="Grupo 565299">
      <path id="Trazado_222178" data-name="Trazado 222178" d="M401.535,414.78A14.563,14.563,0,1,1,416.1,400.217,14.58,14.58,0,0,1,401.535,414.78Zm0-28.127A13.563,13.563,0,1,0,415.1,400.217,13.579,13.579,0,0,0,401.535,386.653Z" fill="#eb7500"/>
    </g>
  </g>
</svg>
