<svg xmlns="http://www.w3.org/2000/svg" width="40.61" height="11.015" viewBox="0 0 40.61 11.015">
  <g id="Grupo_565296" data-name="Grupo 565296" transform="translate(-359.816 282.65) rotate(-90)">
    <path id="Trazado_222174" data-name="Trazado 222174" d="M277.494,359.816c.043,1.871,1.21,2.84,2.245,3.691,1.008.826,1.877,1.54,1.878,2.992s-.87,2.165-1.877,2.992c-1.056.868-2.253,1.851-2.254,3.79s1.2,2.924,2.254,3.792c1.007.828,1.876,1.541,1.877,2.993s-.871,2.166-1.877,2.993c-1.056.868-2.253,1.852-2.253,3.791s1.2,2.924,2.254,3.793c1.006.828,1.876,1.54,1.876,2.993s-.87,2.169-1.877,3c-1.056.868-2.253,1.851-2.253,3.793h1.031c0-1.453.869-2.167,1.877-3,1.056-.867,2.255-1.85,2.254-3.792s-1.2-2.924-2.254-3.792c-1.007-.828-1.877-1.543-1.876-3s.869-2.164,1.875-2.991c1.058-.866,2.254-1.85,2.255-3.79s-1.2-2.924-2.255-3.792c-1.007-.827-1.875-1.541-1.875-2.994s.87-2.166,1.876-2.992c1.056-.868,2.254-1.851,2.255-3.79s-1.2-2.923-2.254-3.79c-.983-.806-1.829-1.511-1.869-2.892" fill="#faae0e"/>
    <path id="Trazado_222175" data-name="Trazado 222175" d="M271.644,359.816c.043,1.871,1.209,2.84,2.247,3.692,1.005.825,1.875,1.539,1.875,2.991s-.87,2.165-1.876,2.992c-1.057.867-2.254,1.851-2.255,3.79s1.2,2.924,2.255,3.792c1.006.828,1.876,1.541,1.876,2.994s-.87,2.165-1.877,2.992c-1.055.868-2.254,1.851-2.252,3.791s1.2,2.925,2.253,3.793c1.006.828,1.876,1.541,1.876,2.994s-.87,2.168-1.877,3c-1.055.868-2.253,1.852-2.254,3.792h1.033c0-1.453.87-2.167,1.876-3,1.057-.868,2.254-1.85,2.254-3.791s-1.2-2.924-2.253-3.794c-1.006-.827-1.877-1.542-1.877-2.995s.871-2.166,1.876-2.992c1.057-.866,2.254-1.85,2.254-3.789s-1.2-2.925-2.253-3.791c-1.007-.83-1.877-1.543-1.877-3s.871-2.166,1.877-2.993c1.056-.867,2.253-1.85,2.253-3.789s-1.2-2.923-2.253-3.79c-.983-.806-1.828-1.511-1.869-2.892" fill="#faae0e"/>
  </g>
</svg>
