<svg xmlns="http://www.w3.org/2000/svg" width="80.109" height="14.075" viewBox="0 0 80.109 14.075">
  <g id="Grupo_565450" data-name="Grupo 565450" transform="translate(-94.214 -30.78)">
    <g id="Grupo_565446" data-name="Grupo 565446">
      <g id="Grupo_565445" data-name="Grupo 565445">
        <g id="Grupo_565444" data-name="Grupo 565444">
          <path id="Trazado_222712" data-name="Trazado 222712" d="M170.571,32.657a1.88,1.88,0,0,1,1.877-1.877h0a1.873,1.873,0,0,1,1.875,1.875h0a1.878,1.878,0,0,1-1.876,1.878h0A1.883,1.883,0,0,1,170.571,32.657Zm-9.541,0a1.867,1.867,0,0,1,1.872-1.874h0a1.874,1.874,0,0,1,1.875,1.875h0a1.878,1.878,0,0,1-1.875,1.875h0A1.87,1.87,0,0,1,161.03,32.657Zm-9.543,0a1.866,1.866,0,0,1,1.874-1.874h0a1.877,1.877,0,0,1,1.876,1.874h0a1.886,1.886,0,0,1-1.876,1.876h0A1.871,1.871,0,0,1,151.487,32.657Zm-9.545,0a1.866,1.866,0,0,1,1.865-1.874h0a1.874,1.874,0,0,1,1.884,1.874h0a1.882,1.882,0,0,1-1.883,1.876h0A1.873,1.873,0,0,1,141.942,32.657Zm-9.553,0a1.873,1.873,0,0,1,1.874-1.875h0a1.871,1.871,0,0,1,1.875,1.875h0a1.875,1.875,0,0,1-1.875,1.875h0A1.879,1.879,0,0,1,132.389,32.658Zm-9.546,0a1.876,1.876,0,0,1,1.876-1.874h0a1.869,1.869,0,0,1,1.876,1.874h0a1.875,1.875,0,0,1-1.876,1.876h0A1.883,1.883,0,0,1,122.843,32.657Zm-9.542,0a1.873,1.873,0,0,1,1.875-1.874h0a1.875,1.875,0,0,1,1.875,1.876h0a1.879,1.879,0,0,1-1.875,1.873h0A1.878,1.878,0,0,1,113.3,32.657Zm-9.546,0a1.873,1.873,0,0,1,1.876-1.877h0a1.878,1.878,0,0,1,1.876,1.877h0a1.883,1.883,0,0,1-1.876,1.876h0A1.877,1.877,0,0,1,103.755,32.657Zm-9.541,0a1.866,1.866,0,0,1,1.876-1.875h0a1.876,1.876,0,0,1,1.874,1.874h0a1.882,1.882,0,0,1-1.876,1.876h0A1.874,1.874,0,0,1,94.214,32.658Z" fill="#f3c178"/>
        </g>
      </g>
    </g>
    <g id="Grupo_565449" data-name="Grupo 565449">
      <g id="Grupo_565448" data-name="Grupo 565448">
        <g id="Grupo_565447" data-name="Grupo 565447">
          <path id="Trazado_222713" data-name="Trazado 222713" d="M170.572,42.98a1.874,1.874,0,0,1,1.876-1.876h0a1.869,1.869,0,0,1,1.873,1.876h0a1.876,1.876,0,0,1-1.873,1.873h0A1.879,1.879,0,0,1,170.572,42.98Zm-9.542,0A1.865,1.865,0,0,1,162.9,41.1h0a1.873,1.873,0,0,1,1.874,1.875h0a1.878,1.878,0,0,1-1.877,1.874h0A1.876,1.876,0,0,1,161.03,42.98Zm-9.546,0a1.871,1.871,0,0,1,1.877-1.874h0a1.871,1.871,0,0,1,1.874,1.873h0a1.882,1.882,0,0,1-1.874,1.877h0A1.879,1.879,0,0,1,151.484,42.979Zm-9.542,0a1.862,1.862,0,0,1,1.864-1.874h0a1.86,1.86,0,0,1,1.874,1.874h0a1.872,1.872,0,0,1-1.873,1.874h0A1.871,1.871,0,0,1,141.942,42.98Zm-9.553,0a1.872,1.872,0,0,1,1.874-1.874h0a1.86,1.86,0,0,1,1.873,1.874h0a1.869,1.869,0,0,1-1.871,1.874h0A1.88,1.88,0,0,1,132.389,42.98Zm-9.544,0a1.87,1.87,0,0,1,1.874-1.875h0a1.866,1.866,0,0,1,1.875,1.875h0a1.876,1.876,0,0,1-1.876,1.875h0A1.88,1.88,0,0,1,122.845,42.98Zm-9.545,0a1.87,1.87,0,0,1,1.874-1.876h0a1.874,1.874,0,0,1,1.876,1.876h0a1.88,1.88,0,0,1-1.873,1.874h0A1.875,1.875,0,0,1,113.3,42.98Zm-9.544,0a1.867,1.867,0,0,1,1.876-1.876h0a1.874,1.874,0,0,1,1.875,1.875h0a1.88,1.88,0,0,1-1.875,1.875h0A1.875,1.875,0,0,1,103.756,42.98Zm-9.542,0A1.866,1.866,0,0,1,96.086,41.1h0a1.874,1.874,0,0,1,1.876,1.876h0a1.875,1.875,0,0,1-1.874,1.872h0A1.87,1.87,0,0,1,94.214,42.977Z" fill="#f3c178"/>
        </g>
      </g>
    </g>
  </g>
</svg>
