<svg xmlns="http://www.w3.org/2000/svg" width="1240" height="275.51" viewBox="0 0 1240 275.51">
  <g id="Grupo_565472" data-name="Grupo 565472" transform="translate(-180 -2834.955)">
    <g id="Grupo_560524" data-name="Grupo 560524" transform="translate(180 2834.955)" opacity="0.07">
      <path id="Trazado_158244" data-name="Trazado 158244" d="M0,321.194V46.286H1239V321.194" transform="translate(0.469 -45.816)" fill="#f8edeb" style="mix-blend-mode: soft-light;isolation: isolate"/>
      <path id="Trazado_158245" data-name="Trazado 158245" d="M1447.4,321.195c-18.281-36.2,7.343-91.263,46.583-123.751,15.212-12.594,33.768-22.323,49.953-34.13s30.48-26.652,33.131-43.964c2.525-16.491-6.139-33.237-20.008-45.687s-32.5-21.02-51.859-27.376H1684.03V321.195" transform="translate(-444.557 -45.816)" fill="#a6afff"/>
      <path id="Trazado_158246" data-name="Trazado 158246" d="M85.69,1092.721c-6.5-13.509-13.062-28.886-15.9-43.606s-1.568-30.827,6.694-43.335c9.912-15.005,29.434-24.914,31.232-42.808.668-6.652-1.421-13.316-4.453-19.275-11.783-23.15-39.2-37.237-64.883-33.336C25.557,912.31,11.606,918.183,0,923.977v168.744" transform="translate(0.469 -817.343)" fill="#a6afff"/>
      <path id="Trazado_158247" data-name="Trazado 158247" d="M0,87.45c11.166,12.438,30.553,16.9,47.254,16.212S80.1,97.868,96.381,94.073s33.483-6.27,49.569-1.727c11.2,3.163,21.164,9.536,31.414,15.049,17.161,9.23,35.919,16.291,55.391,17.007s41.43-7.224,55.972-20.193c9.035-8.058,13.96-15.1,15.383-26.127,1.953-15.139-6.746-32.84-20.511-33.041L0,45.233Z" transform="translate(0.469 -44.763)" fill="#a6afff"/>
      <path id="Trazado_158248" data-name="Trazado 158248" d="M289.353,1282.146c-20.16-12.71-26.478-26.7-26.335-42.865.073-8.245,2.875-16.181,4.787-24.2,3.206-13.457,3.461-29.013-5.431-39.61-9.651-11.5-26.775-17.865-41.627-15.662-8.774,1.3-17.848,5.243-23.276,15.925-6.939,13.655-1.15,29.738-2.979,44.946-1.74,14.47-13.41,27.1-27.615,30.356s-30-2.82-38.681-14.527c-5.928-7.995-8.728-18.17-15.636-25.335-10.294-10.677-27.16-11.943-41.649-8.776-14.259,3.116-29.48,9.716-42.713,3.558-7.979-3.713-13.656-12.01-17.5-19.928C4.2,1172.623.43,1142.491,0,1133.7v148.445" transform="translate(0.469 -1006.768)" fill="#606060" style="mix-blend-mode: soft-light;isolation: isolate"/>
      <path id="Trazado_158249" data-name="Trazado 158249" d="M0,46.286C.867,53.617,8.351,63.55,15.626,64.8s14.739-.064,22.111.328A48.433,48.433,0,0,1,75.1,86.666c4.338,6.648,6.976,14.315,11.553,20.8,7.291,10.333,19.26,16.947,31.773,18.778s25.466-.892,36.776-6.551c5.675-2.84,11.1-6.513,14.82-11.654,4.195-5.794,5.919-13,6.921-20.084a140.626,140.626,0,0,0-.772-41.671Z" transform="translate(0.469 -45.816)" fill="#f8edeb" style="mix-blend-mode: soft-light;isolation: isolate"/>
      <path id="Trazado_158250" data-name="Trazado 158250" d="M2240.975,45.185c12.222-1.517,24.931,5.823,34.939,13A54.057,54.057,0,0,1,2296.334,88.1a38.852,38.852,0,0,1,1.136,16.06c-1.284,7.937-5.695,14.95-9.207,22.182a105.219,105.219,0,0,0-10.214,53.617c.922,12.169,4.357,25.964,10.142,36.709,5.128,9.523,15.066,21.493,22.892,27.287,19.046,14.1,34.612,20.656,49.161,20.656V45.185Z" transform="translate(-1120.772 -44.715)" fill="#f8edeb" style="mix-blend-mode: soft-light;isolation: isolate"/>
      <path id="Trazado_158251" data-name="Trazado 158251" d="M2301.11,1025.2a92.293,92.293,0,0,1-4.469-48.823,88.983,88.983,0,0,1,21.094-43.742,94.8,94.8,0,0,1,19.189-16.18c6.678-4.345,13.7-8.087,20.594-12.062a109.521,109.521,0,0,0,19.625-13.772,116.2,116.2,0,0,0,8.44-8.735,85.889,85.889,0,0,0,5.913-7.319,77.218,77.218,0,0,0,9.337-17.953,81.675,81.675,0,0,0,4.818-21.1,39.732,39.732,0,0,0,.111-5.014c-.028-.631-1.013-.634-.984,0,.331,7.3-1.386,14.759-3.509,21.694a80.968,80.968,0,0,1-8.744,19.039,91.862,91.862,0,0,1-13.327,16.056,98.486,98.486,0,0,1-19.638,14.767c-6.774,4.019-13.768,7.653-20.448,11.833a102.978,102.978,0,0,0-19.659,15.452,89.518,89.518,0,0,0-22.824,42.169,93.914,93.914,0,0,0,1.535,48.135q.9,2.941,2,5.813" transform="translate(-1165.797 -749.951)" fill="#a6afff"/>
      <path id="Trazado_158252" data-name="Trazado 158252" d="M2354.916,1076.5a90.242,90.242,0,0,1-4.176-46.2,85.754,85.754,0,0,1,19.513-41.883,88.4,88.4,0,0,1,17.786-15.447c6.228-4.172,12.794-7.767,19.23-11.6a99.994,99.994,0,0,0,18.236-13.294,112.79,112.79,0,0,0,7.792-8.383,77.931,77.931,0,0,0,5.254-6.76,74.574,74.574,0,0,0,8.5-16.91,79.5,79.5,0,0,0,4.463-20.222,38.729,38.729,0,0,0,.092-4.64c-.028-.631-1.012-.635-.984,0,.3,6.9-1.26,13.939-3.2,20.515a78.426,78.426,0,0,1-7.991,18.046,86.245,86.245,0,0,1-12.052,15.093,90.622,90.622,0,0,1-18.213,14.259c-6.319,3.88-12.865,7.374-19.1,11.389a95.923,95.923,0,0,0-18.24,14.748,86.028,86.028,0,0,0-21.176,40.426,91.927,91.927,0,0,0,1.511,45.713q.813,2.734,1.807,5.408" transform="translate(-1211.68 -801.257)" fill="#a6afff"/>
      <path id="Trazado_158253" data-name="Trazado 158253" d="M2254.354,969.437a96.038,96.038,0,0,1-4.77-51.345,93.213,93.213,0,0,1,22.719-46.33,101.4,101.4,0,0,1,20.514-16.964c7.1-4.541,14.545-8.453,21.857-12.623a115.8,115.8,0,0,0,20.79-14.454,123.359,123.359,0,0,0,8.882-9.087,90.961,90.961,0,0,0,6.244-7.621,74.721,74.721,0,0,0,5.391-8.889,83.761,83.761,0,0,0,9.753-32.28,41.316,41.316,0,0,0,.118-5.276c-.029-.631-1.013-.634-.984,0,.355,7.73-1.5,15.644-3.784,22.978a84.51,84.51,0,0,1-9.359,20.028,97.28,97.28,0,0,1-14.063,16.711,104.329,104.329,0,0,1-20.8,15.487c-7.19,4.223-14.615,8.029-21.718,12.4a110.237,110.237,0,0,0-20.956,16.17,93.845,93.845,0,0,0-24.524,44.5,97.649,97.649,0,0,0,1.619,50.766q.951,3.083,2.12,6.091" transform="translate(-1125.927 -694.189)" fill="#a6afff"/>
      <path id="Trazado_158254" data-name="Trazado 158254" d="M2203.6,919.25a98.462,98.462,0,0,1-5.024-54,96.63,96.63,0,0,1,24.318-48.2,107.656,107.656,0,0,1,21.7-17.543c7.547-4.733,15.458-8.806,23.232-13.141,7.726-4.308,15.251-8.964,21.916-14.817a127.011,127.011,0,0,0,9.68-9.629,98.248,98.248,0,0,0,6.713-7.977,76.567,76.567,0,0,0,5.75-9.2,88.908,88.908,0,0,0,4.934-10.427,87.276,87.276,0,0,0,5.626-23.576,42.2,42.2,0,0,0,.126-5.511c-.03-.631-1.014-.634-.984,0,.381,8.131-1.625,16.467-4.087,24.16a87.2,87.2,0,0,1-10.091,21.007,102.943,102.943,0,0,1-15.183,17.541,111.855,111.855,0,0,1-22.084,15.993c-7.538,4.325-15.307,8.232-22.757,12.712a117.992,117.992,0,0,0-22.343,16.8,97.488,97.488,0,0,0-26.3,46.347,100.017,100.017,0,0,0,1.644,53.367q1.016,3.222,2.262,6.363" transform="translate(-1082.652 -644.002)" fill="#a6afff"/>
      <path id="Trazado_158255" data-name="Trazado 158255" d="M2151.807,869.062a100.534,100.534,0,0,1,20.677-106.73,114.908,114.908,0,0,1,23.291-18.354c7.965-4.875,16.295-9.072,24.483-13.547,8.225-4.5,16.239-9.36,23.356-15.5a132.881,132.881,0,0,0,9.953-9.689,105.417,105.417,0,0,0,7.309-8.474,79.191,79.191,0,0,0,6.139-9.6,92.183,92.183,0,0,0,5.249-10.828,89.36,89.36,0,0,0,6.041-24.716,43.171,43.171,0,0,0,.134-5.747c-.03-.631-1.015-.634-.984,0,.409,8.537-1.757,17.3-4.4,25.354a89.965,89.965,0,0,1-10.785,21.893,108.471,108.471,0,0,1-16.141,18.221,118.432,118.432,0,0,1-23.238,16.5c-8.111,4.569-16.471,8.68-24.493,13.409a125.225,125.225,0,0,0-23.6,17.365,101.2,101.2,0,0,0-28.068,48.317,102.309,102.309,0,0,0,1.731,55.778q1.078,3.347,2.4,6.608" transform="translate(-1038.482 -593.814)" fill="#a6afff"/>
      <path id="Trazado_158256" data-name="Trazado 158256" d="M2099.287,822.89A102.661,102.661,0,0,1,2121.5,711.836,121.986,121.986,0,0,1,2146.05,693c8.368-5,17.1-9.314,25.694-13.9,8.7-4.646,17.2-9.665,24.768-16.029a139.032,139.032,0,0,0,10.714-10.183,109.719,109.719,0,0,0,7.7-8.719,81.34,81.34,0,0,0,6.35-9.64,96.029,96.029,0,0,0,5.68-11.354,90.931,90.931,0,0,0,6.521-25.927,43.931,43.931,0,0,0,.142-5.964c-.031-.63-1.015-.634-.984,0,.437,8.92-1.895,18.087-4.725,26.477a92.343,92.343,0,0,1-11.485,22.7c-4.82,7-10.981,13.256-17.24,18.964a126.451,126.451,0,0,1-24.676,17.059c-8.4,4.617-17.036,8.784-25.35,13.557a133.919,133.919,0,0,0-25.171,18.005A103.763,103.763,0,0,0,2095.8,816.321q1.141,3.461,2.536,6.83" transform="translate(-993.699 -547.642)" fill="#a6afff"/>
      <g id="Grupo_560523" data-name="Grupo 560523" transform="translate(0 0)">
        <g id="Grupo_560518" data-name="Grupo 560518" transform="translate(0 0.003)">
          <path id="Trazado_158257" data-name="Trazado 158257" d="M-2.573,208.048c12.853-1.455,25.828-3.656,37.684-9.048,9.957-4.529,19.174-11.594,24.779-21.127,2.869-4.881,4.23-10.129,5.364-15.627,1.162-5.629,2.566-11.426,6.89-15.525,7.995-7.577,20.679-7.106,30.581-4.465,6.427,1.714,12.586,4.264,18.915,6.284a66.32,66.32,0,0,0,17.914,3.321,62.141,62.141,0,0,0,33.042-8.187,73.6,73.6,0,0,0,12.326-9.29,77.31,77.31,0,0,0,9.566-10.263,62.132,62.132,0,0,0,12-28.4,57.3,57.3,0,0,0-.9-21.547,57.391,57.391,0,0,0-12.393-25.309,47.433,47.433,0,0,0-5.7-5.487c-.487-.4-1.187.3-.7.7a52.055,52.055,0,0,1,16.272,24.612A60.045,60.045,0,0,1,206.15,90a60.972,60.972,0,0,1-9.165,28.817,77.237,77.237,0,0,1-19.726,20.633,60.263,60.263,0,0,1-32.294,11.373,59.518,59.518,0,0,1-17.539-1.649c-6.335-1.571-12.395-4.032-18.577-6.089-10.105-3.364-21.44-5.508-31.558-.934a20.05,20.05,0,0,0-10.238,10.208c-2.3,5.212-2.753,10.965-4.3,16.4-3.051,10.69-11,19.275-20.23,25.13-10.634,6.747-23.083,9.972-35.409,11.9-3.218.5-6.449.914-9.685,1.28-.622.07-.63,1.056,0,.984Z" transform="translate(3.042 -43.26)" fill="#a6afff"/>
        </g>
        <g id="Grupo_560519" data-name="Grupo 560519" transform="translate(0 0.004)">
          <path id="Trazado_158258" data-name="Trazado 158258" d="M-2.573,201.488C9.815,200.1,22.316,198,33.77,192.873c9.668-4.328,18.656-11.1,24.138-20.3,2.788-4.682,4.121-9.724,5.222-15.015,1.131-5.437,2.5-11.025,6.7-14.962,7.81-7.313,20.152-6.781,29.765-4.215,6.159,1.644,12.071,4.063,18.143,5.984a64.8,64.8,0,0,0,17.356,3.189,60.638,60.638,0,0,0,31.873-7.781,70.912,70.912,0,0,0,12.038-8.961,74.392,74.392,0,0,0,9.324-9.91,59.443,59.443,0,0,0,11.628-27.371,54.532,54.532,0,0,0-.917-20.667,54.92,54.92,0,0,0-11.964-24.182,45.765,45.765,0,0,0-5.543-5.293c-.488-.395-1.189.3-.7.7a49.931,49.931,0,0,1,15.755,23.612,57.264,57.264,0,0,1,3,20.386,58.092,58.092,0,0,1-8.949,27.835A74.383,74.383,0,0,1,171.479,135.7a59.128,59.128,0,0,1-48.127,9.238c-6.074-1.493-11.891-3.824-17.818-5.787-9.826-3.255-20.813-5.361-30.671-.99a19.368,19.368,0,0,0-9.968,9.756c-2.286,5.069-2.7,10.69-4.251,15.982-3,10.257-10.736,18.444-19.632,24.019C30.718,194.363,18.7,197.437,6.8,199.275c-3.116.482-6.244.876-9.377,1.228-.622.07-.63,1.055,0,.984Z" transform="translate(3.043 -43.268)" fill="#a6afff"/>
        </g>
        <g id="Grupo_560520" data-name="Grupo 560520" transform="translate(0 0.002)">
          <path id="Trazado_158259" data-name="Trazado 158259" d="M-2.572,214.608c13.322-1.52,26.774-3.828,39.035-9.49,10.269-4.742,19.735-12.127,25.455-22.025,2.944-5.1,4.314-10.567,5.486-16.282,1.208-5.893,2.712-11.94,7.287-16.182,8.379-7.768,21.472-7.159,31.724-4.346,6.621,1.816,12.968,4.472,19.5,6.553a67.19,67.19,0,0,0,18.373,3.342,63.62,63.62,0,0,0,34.135-8.723,76.778,76.778,0,0,0,12.545-9.621,79.8,79.8,0,0,0,9.875-10.757A64.874,64.874,0,0,0,213.059,97.6a60.005,60.005,0,0,0-.969-22.223,59.834,59.834,0,0,0-12.8-26.321,49.1,49.1,0,0,0-5.854-5.68c-.486-.4-1.186.293-.7.7a54.182,54.182,0,0,1,16.788,25.612,63.035,63.035,0,0,1,3.187,22.1,63.742,63.742,0,0,1-9.382,29.925A80.3,80.3,0,0,1,183.2,143.084a61.753,61.753,0,0,1-33.183,12.02,60.757,60.757,0,0,1-17.932-1.55c-6.615-1.594-12.929-4.172-19.362-6.349-10.448-3.536-22.12-5.867-32.641-1.221A20.775,20.775,0,0,0,69.394,156.4c-2.477,5.444-2.939,11.49-4.53,17.2-3.1,11.114-11.234,20.082-20.779,26.227C33.1,206.9,20.2,210.281,7.42,212.292c-3.32.522-6.654.951-9.993,1.332-.622.071-.629,1.056,0,.984Z" transform="translate(3.042 -43.253)" fill="#a6afff"/>
        </g>
        <g id="Grupo_560521" data-name="Grupo 560521" transform="translate(0 0.001)">
          <path id="Trazado_158260" data-name="Trazado 158260" d="M-2.572,221.169c13.73-1.579,27.594-3.979,40.215-9.853,10.624-4.944,20.387-12.647,26.26-22.93,3.014-5.277,4.414-10.937,5.615-16.842,1.243-6.112,2.786-12.4,7.513-16.814,8.664-8.1,22.225-7.436,32.842-4.48,6.8,1.894,13.326,4.644,20.048,6.8a68.653,68.653,0,0,0,18.841,3.442,65.132,65.132,0,0,0,35.318-9.147,79.542,79.542,0,0,0,12.847-9.968,82.483,82.483,0,0,0,10.113-11.12,67.643,67.643,0,0,0,12.569-30.612,62.83,62.83,0,0,0-1.035-23.2A62.233,62.233,0,0,0,205.4,49.237a50.76,50.76,0,0,0-6.007-5.87c-.484-.4-1.185.291-.7.7,8.336,6.909,14.052,16.354,17.3,26.613a65.931,65.931,0,0,1,3.283,22.96,66.583,66.583,0,0,1-9.593,30.957c-5.3,8.659-12.658,16.078-20.7,22.224a63.274,63.274,0,0,1-34.341,12.593,62.211,62.211,0,0,1-18.661-1.654c-6.733-1.654-13.161-4.292-19.709-6.528-10.729-3.664-22.717-6.105-33.545-1.353A21.511,21.511,0,0,0,71.6,160.747c-2.553,5.656-3.027,11.93-4.667,17.858-3.175,11.479-11.5,20.79-21.326,27.19C34.282,213.169,20.944,216.705,7.729,218.8c-3.422.542-6.859.988-10.3,1.384-.622.072-.629,1.057,0,.984Z" transform="translate(3.041 -43.246)" fill="#a6afff"/>
        </g>
        <g id="Grupo_560522" data-name="Grupo 560522" transform="translate(0)">
          <path id="Trazado_158261" data-name="Trazado 158261" d="M-2.571,227.73c14.206-1.646,28.554-4.154,41.582-10.3,10.933-5.16,20.944-13.187,26.928-23.837,3.095-5.507,4.5-11.411,5.742-17.55,1.268-6.256,2.875-12.677,7.69-17.21,8.968-8.442,23.027-7.708,34.025-4.6,7,1.982,13.713,4.836,20.638,7.055a69.732,69.732,0,0,0,19.563,3.516,66.685,66.685,0,0,0,36.3-9.684A82.911,82.911,0,0,0,203.1,144.7a84.611,84.611,0,0,0,10.314-11.521,70.522,70.522,0,0,0,12.8-31.878,65.545,65.545,0,0,0-1.163-23.824c-2.3-10.226-6.7-20.107-13.57-28.089a52.415,52.415,0,0,0-6.135-6.03c-.483-.4-1.183.289-.7.7,8.567,7.153,14.43,16.907,17.779,27.483a69.273,69.273,0,0,1,3.43,23.725,69.2,69.2,0,0,1-9.731,32.071c-5.344,8.891-12.75,16.418-20.849,22.832a64.749,64.749,0,0,1-35.615,13.523,63.55,63.55,0,0,1-19.18-1.594c-6.944-1.676-13.567-4.4-20.3-6.734-11.156-3.867-23.632-6.526-34.917-1.541A22.2,22.2,0,0,0,73.828,165.03c-2.606,5.774-3.119,12.172-4.739,18.237-3.2,11.975-11.714,21.728-21.907,28.455-11.615,7.665-25.334,11.367-38.939,13.555-3.592.578-7.2,1.05-10.815,1.469-.622.072-.629,1.057,0,.984Z" transform="translate(3.041 -43.24)" fill="#a6afff"/>
        </g>
      </g>
      <circle id="Elipse_4999" data-name="Elipse 4999" cx="8.591" cy="8.591" r="8.591" transform="translate(888.993 22.798)" fill="#f8edeb"/>
      <circle id="Elipse_5000" data-name="Elipse 5000" cx="4.296" cy="4.296" r="4.296" transform="translate(1212.502 214.25)" fill="#f8edeb"/>
      <circle id="Elipse_5001" data-name="Elipse 5001" cx="5.73" cy="5.73" r="5.73" transform="translate(461.517 191.268)" fill="#a6afff"/>
      <circle id="Elipse_5002" data-name="Elipse 5002" cx="5.73" cy="5.73" r="5.73" transform="translate(42.932 90.231)" fill="#a6afff"/>
      <path id="Trazado_158262" data-name="Trazado 158262" d="M397.494,1782.143l1.365,3.457,3.553-1.088-1.852,3.222,3.066,2.1-3.674.561.27,3.706-2.729-2.522-2.729,2.522.27-3.706-3.674-.561,3.066-2.1-1.852-3.222,3.553,1.088Z" transform="translate(-330.507 -1555.157)" fill="#a6afff"/>
      <path id="Trazado_158263" data-name="Trazado 158263" d="M1881.439,1943.311l1.365,3.457,3.553-1.088-1.852,3.222,3.066,2.1-3.674.561.27,3.706-2.729-2.522-2.729,2.522.27-3.706-3.674-.561,3.066-2.1-1.852-3.222,3.553,1.088Z" transform="translate(-1091.162 -1691.458)" fill="#f8edeb"/>
      <path id="Trazado_158264" data-name="Trazado 158264" d="M441.607,282.917l3.438,8.708L454,288.883,449.331,297l7.724,5.289L447.8,303.7l.681,9.337-6.875-6.354-6.875,6.354.681-9.337-9.254-1.414L433.883,297l-4.665-8.117,8.951,2.741Z" transform="translate(-359.934 -245.935)" fill="#a6afff"/>
      <path id="Trazado_158265" data-name="Trazado 158265" d="M2741.432,152.245l1.365,3.457,3.553-1.088-1.852,3.222,3.066,2.1-3.674.561.271,3.706-2.729-2.522L2738.7,164.2l.27-3.706-3.674-.561,3.066-2.1-1.852-3.222,3.553,1.088Z" transform="translate(-1538.823 -135.426)" fill="#a6afff"/>
      <path id="Trazado_158266" data-name="Trazado 158266" d="M2148.742,909.716l3.493,8.848,9.1-2.786-4.74,8.247,7.849,5.374-9.4,1.437.692,9.487-6.986-6.456-6.986,6.456.692-9.487-9.4-1.437,7.849-5.374-4.74-8.247,9.1,2.786Z" transform="translate(-1216.563 -795.323)" fill="#f8edeb"/>
      <path id="Trazado_158267" data-name="Trazado 158267" d="M0,321.194V46.286H1239V321.194" transform="translate(0.469 -45.816)" fill="none"/>
    </g>
    <line id="Línea_142" data-name="Línea 142" y1="32.17" transform="translate(323.568 3016.83)" fill="#a7a7bc"/>
  </g>
</svg>
