<svg xmlns="http://www.w3.org/2000/svg" width="53.5" height="53.5" viewBox="0 0 53.5 53.5">
  <g id="Grupo_560688" data-name="Grupo 560688" transform="translate(-252.358 688.642) rotate(-90)">
    <path id="Trazado_158214" data-name="Trazado 158214" d="M644.289,300.784a4.073,4.073,0,1,1-4.073-4.073A4.074,4.074,0,0,1,644.289,300.784Z" fill="none" stroke="#010101" stroke-miterlimit="10" stroke-width="2"/>
    <path id="Trazado_158215" data-name="Trazado 158215" d="M660.593,287.259a5,5,0,1,1-5-5A5,5,0,0,1,660.593,287.259Z" fill="#946e83"/>
    <path id="Trazado_158216" data-name="Trazado 158216" d="M675.044,272.808a5,5,0,1,1-5-5A5,5,0,0,1,675.044,272.808Z" fill="#946e83"/>
    <path id="Trazado_158217" data-name="Trazado 158217" d="M687.642,257.431a4.074,4.074,0,1,1-4.073-4.073A4.074,4.074,0,0,1,687.642,257.431Z" fill="none" stroke="#010101" stroke-miterlimit="10" stroke-width="2"/>
  </g>
</svg>
