<svg xmlns="http://www.w3.org/2000/svg" width="130.815" height="24.984" viewBox="0 0 130.815 24.984">
  <g id="Grupo_565463" data-name="Grupo 565463" transform="translate(-1230 -2333.359)">
    <g id="Grupo_560850" data-name="Grupo 560850" transform="translate(2593.116 -86.219) rotate(45)">
      <g id="Grupo_560848" data-name="Grupo 560848" transform="translate(342.494 2505.804)">
        <circle id="Elipse_5039" data-name="Elipse 5039" cx="6.36" cy="6.36" r="6.36" transform="translate(486.306 87.196)" fill="#f3c178"/>
        <circle id="Elipse_5040" data-name="Elipse 5040" cx="6.36" cy="6.36" r="6.36" transform="translate(460.322 113.18)" fill="#f3c178"/>
        <circle id="Elipse_5041" data-name="Elipse 5041" cx="6.36" cy="6.36" r="6.36" transform="translate(493.635 87.196)" fill="none" stroke="#010101" stroke-linecap="round" stroke-linejoin="round" stroke-width="1.413"/>
        <circle id="Elipse_5042" data-name="Elipse 5042" cx="6.36" cy="6.36" r="6.36" transform="translate(467.651 113.18)" fill="none" stroke="#010101" stroke-linecap="round" stroke-linejoin="round" stroke-width="1.413"/>
      </g>
      <g id="Grupo_560849" data-name="Grupo 560849" transform="translate(293.645 2555.804)">
        <path id="Trazado_159212" data-name="Trazado 159212" d="M6.36,0A6.36,6.36,0,1,1,0,6.36,6.36,6.36,0,0,1,6.36,0Z" transform="translate(486.306 87.196)" fill="#f3c178"/>
        <circle id="Elipse_5044" data-name="Elipse 5044" cx="6.36" cy="6.36" r="6.36" transform="translate(460.322 113.18)" fill="#f3c178"/>
        <circle id="Elipse_5045" data-name="Elipse 5045" cx="6.36" cy="6.36" r="6.36" transform="translate(493.635 87.196)" fill="none" stroke="#010101" stroke-linecap="round" stroke-linejoin="round" stroke-width="1.413"/>
        <circle id="Elipse_5046" data-name="Elipse 5046" cx="6.36" cy="6.36" r="6.36" transform="translate(467.651 113.18)" fill="none" stroke="#010101" stroke-linecap="round" stroke-linejoin="round" stroke-width="1.413"/>
      </g>
    </g>
  </g>
</svg>
