<svg xmlns="http://www.w3.org/2000/svg" width="46.29" height="64.458" viewBox="0 0 46.29 64.458">
  <g id="Grupo_560493" data-name="Grupo 560493" transform="translate(-635.142 -252.358)">
    <path id="Trazado_158214" data-name="Trazado 158214" d="M643.022,300.151a3.44,3.44,0,1,0-3.439,3.439A3.44,3.44,0,0,0,643.022,300.151Z" transform="translate(0 -43.353)" fill="none" stroke="#010101" stroke-miterlimit="10" stroke-width="2"/>
    <path id="Trazado_158215" data-name="Trazado 158215" d="M659.037,286.483a4.222,4.222,0,1,0-4.222,4.222A4.222,4.222,0,0,0,659.037,286.483Z" transform="translate(-1.969 -12.505)" fill="#946e83"/>
    <path id="Trazado_158216" data-name="Trazado 158216" d="M673.488,272.032a4.222,4.222,0,1,0-4.222,4.222A4.222,4.222,0,0,0,673.488,272.032Z" transform="translate(-3.938 20.754)" fill="#946e83"/>
    <path id="Trazado_158217" data-name="Trazado 158217" d="M686.375,256.8a3.44,3.44,0,1,0-3.439,3.439A3.44,3.44,0,0,0,686.375,256.8Z" transform="translate(-5.943 55.579)" fill="none" stroke="#010101" stroke-miterlimit="10" stroke-width="2"/>
  </g>
</svg>
