<svg xmlns="http://www.w3.org/2000/svg" width="157.826" height="24.556" viewBox="0 0 157.826 24.556">
  <g id="Grupo_565466" data-name="Grupo 565466" transform="translate(-178.585 -1549.958)">
    <g id="Grupo_560828" data-name="Grupo 560828" transform="translate(-54.254 900.745) rotate(45)">
      <path id="Trazado_158214" data-name="Trazado 158214" d="M644.289,300.784a4.073,4.073,0,1,1-4.073-4.073A4.074,4.074,0,0,1,644.289,300.784Z" fill="none" stroke="#010101" stroke-miterlimit="10" stroke-width="2"/>
      <path id="Trazado_158215" data-name="Trazado 158215" d="M660.593,287.259a5,5,0,1,1-5-5A5,5,0,0,1,660.593,287.259Z" transform="translate(-5.657 -5.657)" fill="#0057a0"/>
      <path id="Trazado_158216" data-name="Trazado 158216" d="M675.044,272.808a5,5,0,1,1-5-5A5,5,0,0,1,675.044,272.808Z" fill="#0057a0"/>
      <path id="Trazado_158217" data-name="Trazado 158217" d="M687.642,257.431a4.074,4.074,0,1,1-4.073-4.073A4.074,4.074,0,0,1,687.642,257.431Z" transform="translate(-5.657 -5.657)" fill="none" stroke="#010101" stroke-miterlimit="10" stroke-width="2"/>
    </g>
    <g id="Grupo_560829" data-name="Grupo 560829" transform="translate(27.912 900.745) rotate(45)">
      <path id="Trazado_158214-2" data-name="Trazado 158214" d="M644.289,300.784a4.073,4.073,0,1,1-4.073-4.073A4.074,4.074,0,0,1,644.289,300.784Z" fill="none" stroke="#010101" stroke-miterlimit="10" stroke-width="2"/>
      <path id="Trazado_158215-2" data-name="Trazado 158215" d="M660.593,287.259a5,5,0,1,1-5-5A5,5,0,0,1,660.593,287.259Z" transform="translate(-6.364 -6.364)" fill="#0057a0"/>
      <path id="Trazado_158216-2" data-name="Trazado 158216" d="M675.044,272.808a5,5,0,1,1-5-5A5,5,0,0,1,675.044,272.808Z" fill="#0057a0"/>
      <path id="Trazado_158217-2" data-name="Trazado 158217" d="M687.642,257.431a4.074,4.074,0,1,1-4.073-4.073A4.074,4.074,0,0,1,687.642,257.431Z" transform="translate(-6.364 -6.364)" fill="none" stroke="#010101" stroke-miterlimit="10" stroke-width="2"/>
    </g>
  </g>
</svg>
