<svg xmlns="http://www.w3.org/2000/svg" xmlns:xlink="http://www.w3.org/1999/xlink" width="1240" height="489.236" viewBox="0 0 1240 489.236">
  <defs>
    <clipPath id="clip-path">
      <circle id="Elipse_5034" data-name="Elipse 5034" cx="101.062" cy="101.062" r="101.062" fill="#f9b938"/>
    </clipPath>
    <linearGradient id="linear-gradient" y1="0.5" x2="1" y2="0.5" gradientUnits="objectBoundingBox">
      <stop offset="0" stop-color="#fff"/>
      <stop offset="0.003" stop-color="#fefefe"/>
      <stop offset="0.132" stop-color="#ececed"/>
      <stop offset="0.225" stop-color="#e6e6e7"/>
      <stop offset="0.31" stop-color="#ededed"/>
      <stop offset="0.464" stop-color="#f6f6f6"/>
      <stop offset="0.66" stop-color="#f1f1f2"/>
      <stop offset="0.804" stop-color="#efefef"/>
      <stop offset="0.817" stop-color="#efefef"/>
      <stop offset="0.915" stop-color="#f4f4f4"/>
      <stop offset="1" stop-color="#fff"/>
    </linearGradient>
    <linearGradient id="linear-gradient-2" y1="0.5" x2="1" y2="0.5" gradientUnits="objectBoundingBox">
      <stop offset="0" stop-color="#e6e6e7"/>
      <stop offset="0.133" stop-color="#ececed"/>
      <stop offset="0.318" stop-color="#fff"/>
      <stop offset="0.577" stop-color="#efefef"/>
      <stop offset="0.766" stop-color="#e9e9e9"/>
      <stop offset="0.823" stop-color="#e6e6e7"/>
      <stop offset="1" stop-color="#fff"/>
    </linearGradient>
    <linearGradient id="linear-gradient-4" y1="0.5" x2="1" y2="0.5" gradientUnits="objectBoundingBox">
      <stop offset="0" stop-color="#fff"/>
      <stop offset="0.175" stop-color="#e6e6e7"/>
      <stop offset="0.28" stop-color="#f0f0f1"/>
      <stop offset="0.392" stop-color="#f6f6f6"/>
      <stop offset="0.425" stop-color="#f2f2f3"/>
      <stop offset="0.58" stop-color="#f1f1f2"/>
      <stop offset="0.726" stop-color="#efefef"/>
      <stop offset="0.74" stop-color="#efefef"/>
      <stop offset="0.852" stop-color="#e9e9e9"/>
      <stop offset="0.885" stop-color="#e6e6e7"/>
      <stop offset="1" stop-color="#fff"/>
    </linearGradient>
  </defs>
  <g id="Grupo_565465" data-name="Grupo 565465" transform="translate(-180.289 -807.764)">
    <g id="Grupo_560821" data-name="Grupo 560821" transform="translate(24945.289 9761.351)">
      <g id="Grupo_560524" data-name="Grupo 560524" transform="translate(-24765 -8953.587)" opacity="0.07">
        <path id="Trazado_158245" data-name="Trazado 158245" d="M1447.4,534.921c-18.281-64.35,7.343-162.215,46.583-219.961,15.212-22.386,33.768-39.678,49.953-60.664s30.48-47.373,33.131-78.144c2.525-29.312-6.139-59.077-20.008-81.206s-32.5-37.362-51.859-48.66H1684.03V534.921" transform="translate(-444.557 -45.816)" fill="#a6afff"/>
        <path id="Trazado_158246" data-name="Trazado 158246" d="M85.69,1092.721c-6.5-13.509-13.062-28.886-15.9-43.606s-1.568-30.827,6.694-43.335c9.912-15.005,29.434-24.914,31.232-42.808.668-6.652-1.421-13.316-4.453-19.275-11.783-23.15-39.2-37.237-64.883-33.336C25.557,912.31,11.606,918.183,0,923.977v168.744" transform="translate(0.469 -603.616)" fill="#a6afff"/>
        <path id="Trazado_158247" data-name="Trazado 158247" d="M0,87.45c11.166,12.438,30.553,16.9,47.254,16.212S80.1,97.868,96.381,94.073s33.483-6.27,49.569-1.727c11.2,3.163,21.164,9.536,31.414,15.049,17.161,9.23,35.919,16.291,55.391,17.007s41.43-7.224,55.972-20.193c9.035-8.058,13.96-15.1,15.383-26.127,1.953-15.139-6.746-32.84-20.511-33.041L0,45.233Z" transform="translate(0.469 -44.763)" fill="#a6afff"/>
        <path id="Trazado_158248" data-name="Trazado 158248" d="M289.353,1282.146c-20.16-12.71-26.478-26.7-26.335-42.865.073-8.245,2.875-16.181,4.787-24.2,3.206-13.457,3.461-29.013-5.431-39.61-9.651-11.5-26.775-17.865-41.627-15.662-8.774,1.3-17.848,5.243-23.276,15.925-6.939,13.655-1.15,29.738-2.979,44.946-1.74,14.47-13.41,27.1-27.615,30.356s-30-2.82-38.681-14.527c-5.928-7.995-8.728-18.17-15.636-25.335-10.294-10.677-27.16-11.943-41.649-8.776-14.259,3.116-29.48,9.716-42.713,3.558-7.979-3.713-13.656-12.01-17.5-19.928C4.2,1172.623.43,1142.491,0,1133.7v148.445" transform="translate(0.469 -793.041)" fill="#606060" style="mix-blend-mode: soft-light;isolation: isolate"/>
        <path id="Trazado_158249" data-name="Trazado 158249" d="M0,46.286C.867,53.617,8.351,63.55,15.626,64.8s14.739-.064,22.111.328A48.433,48.433,0,0,1,75.1,86.666c4.338,6.648,6.976,14.315,11.553,20.8,7.291,10.333,19.26,16.947,31.773,18.778s25.466-.892,36.776-6.551c5.675-2.84,11.1-6.513,14.82-11.654,4.195-5.794,5.919-13,6.921-20.084a140.626,140.626,0,0,0-.772-41.671Z" transform="translate(0.469 -45.816)" fill="#f8edeb" style="mix-blend-mode: soft-light;isolation: isolate"/>
        <path id="Trazado_158250" data-name="Trazado 158250" d="M2240.975,45.185c12.222-1.517,24.931,5.823,34.939,13A54.057,54.057,0,0,1,2296.334,88.1a38.852,38.852,0,0,1,1.136,16.06c-1.284,7.937-5.695,14.95-9.207,22.182a105.219,105.219,0,0,0-10.214,53.617c.922,12.169,4.357,25.964,10.142,36.709,5.128,9.523,15.066,21.493,22.892,27.287,19.046,14.1,34.612,20.656,49.161,20.656V45.185Z" transform="translate(-1120.772 -44.715)" fill="#f8edeb" style="mix-blend-mode: soft-light;isolation: isolate"/>
        <path id="Trazado_158251" data-name="Trazado 158251" d="M2301.11,1025.2a92.293,92.293,0,0,1-4.469-48.823,88.983,88.983,0,0,1,21.094-43.742,94.8,94.8,0,0,1,19.189-16.18c6.678-4.345,13.7-8.087,20.594-12.062a109.521,109.521,0,0,0,19.625-13.772,116.2,116.2,0,0,0,8.44-8.735,85.889,85.889,0,0,0,5.913-7.319,77.218,77.218,0,0,0,9.337-17.953,81.675,81.675,0,0,0,4.818-21.1,39.732,39.732,0,0,0,.111-5.014c-.028-.631-1.013-.634-.984,0,.331,7.3-1.386,14.759-3.509,21.694a80.968,80.968,0,0,1-8.744,19.039,91.862,91.862,0,0,1-13.327,16.056,98.486,98.486,0,0,1-19.638,14.767c-6.774,4.019-13.768,7.653-20.448,11.833a102.978,102.978,0,0,0-19.659,15.452,89.518,89.518,0,0,0-22.824,42.169,93.914,93.914,0,0,0,1.535,48.135q.9,2.941,2,5.813" transform="translate(-1165.797 -536.224)" fill="#a6afff"/>
        <path id="Trazado_158252" data-name="Trazado 158252" d="M2354.916,1076.5a90.242,90.242,0,0,1-4.176-46.2,85.754,85.754,0,0,1,19.513-41.883,88.4,88.4,0,0,1,17.786-15.447c6.228-4.172,12.794-7.767,19.23-11.6a99.994,99.994,0,0,0,18.236-13.294,112.79,112.79,0,0,0,7.792-8.383,77.931,77.931,0,0,0,5.254-6.76,74.574,74.574,0,0,0,8.5-16.91,79.5,79.5,0,0,0,4.463-20.222,38.729,38.729,0,0,0,.092-4.64c-.028-.631-1.012-.635-.984,0,.3,6.9-1.26,13.939-3.2,20.515a78.426,78.426,0,0,1-7.991,18.046,86.245,86.245,0,0,1-12.052,15.093,90.622,90.622,0,0,1-18.213,14.259c-6.319,3.88-12.865,7.374-19.1,11.389a95.923,95.923,0,0,0-18.24,14.748,86.028,86.028,0,0,0-21.176,40.426,91.927,91.927,0,0,0,1.511,45.713q.813,2.734,1.807,5.408" transform="translate(-1211.68 -587.53)" fill="#a6afff"/>
        <path id="Trazado_158253" data-name="Trazado 158253" d="M2254.354,969.437a96.038,96.038,0,0,1-4.77-51.345,93.213,93.213,0,0,1,22.719-46.33,101.4,101.4,0,0,1,20.514-16.964c7.1-4.541,14.545-8.453,21.857-12.623a115.8,115.8,0,0,0,20.79-14.454,123.359,123.359,0,0,0,8.882-9.087,90.961,90.961,0,0,0,6.244-7.621,74.721,74.721,0,0,0,5.391-8.889,83.761,83.761,0,0,0,9.753-32.28,41.316,41.316,0,0,0,.118-5.276c-.029-.631-1.013-.634-.984,0,.355,7.73-1.5,15.644-3.784,22.978a84.51,84.51,0,0,1-9.359,20.028,97.28,97.28,0,0,1-14.063,16.711,104.329,104.329,0,0,1-20.8,15.487c-7.19,4.223-14.615,8.029-21.718,12.4a110.237,110.237,0,0,0-20.956,16.17,93.845,93.845,0,0,0-24.524,44.5,97.649,97.649,0,0,0,1.619,50.766q.951,3.083,2.12,6.091" transform="translate(-1125.927 -480.463)" fill="#a6afff"/>
        <path id="Trazado_158254" data-name="Trazado 158254" d="M2203.6,919.25a98.462,98.462,0,0,1-5.024-54,96.63,96.63,0,0,1,24.318-48.2,107.656,107.656,0,0,1,21.7-17.543c7.547-4.733,15.458-8.806,23.232-13.141,7.726-4.308,15.251-8.964,21.916-14.817a127.011,127.011,0,0,0,9.68-9.629,98.248,98.248,0,0,0,6.713-7.977,76.567,76.567,0,0,0,5.75-9.2,88.908,88.908,0,0,0,4.934-10.427,87.276,87.276,0,0,0,5.626-23.576,42.2,42.2,0,0,0,.126-5.511c-.03-.631-1.014-.634-.984,0,.381,8.131-1.625,16.467-4.087,24.16a87.2,87.2,0,0,1-10.091,21.007,102.943,102.943,0,0,1-15.183,17.541,111.855,111.855,0,0,1-22.084,15.993c-7.538,4.325-15.307,8.232-22.757,12.712a117.992,117.992,0,0,0-22.343,16.8,97.488,97.488,0,0,0-26.3,46.347,100.017,100.017,0,0,0,1.644,53.367q1.016,3.222,2.262,6.363" transform="translate(-1082.652 -430.275)" fill="#a6afff"/>
        <path id="Trazado_158255" data-name="Trazado 158255" d="M2151.807,869.062a100.534,100.534,0,0,1,20.677-106.73,114.908,114.908,0,0,1,23.291-18.354c7.965-4.875,16.295-9.072,24.483-13.547,8.225-4.5,16.239-9.36,23.356-15.5a132.881,132.881,0,0,0,9.953-9.689,105.417,105.417,0,0,0,7.309-8.474,79.191,79.191,0,0,0,6.139-9.6,92.183,92.183,0,0,0,5.249-10.828,89.36,89.36,0,0,0,6.041-24.716,43.171,43.171,0,0,0,.134-5.747c-.03-.631-1.015-.634-.984,0,.409,8.537-1.757,17.3-4.4,25.354a89.965,89.965,0,0,1-10.785,21.893,108.471,108.471,0,0,1-16.141,18.221,118.432,118.432,0,0,1-23.238,16.5c-8.111,4.569-16.471,8.68-24.493,13.409a125.225,125.225,0,0,0-23.6,17.365,101.2,101.2,0,0,0-28.068,48.317,102.309,102.309,0,0,0,1.731,55.778q1.078,3.347,2.4,6.608" transform="translate(-1038.482 -380.087)" fill="#a6afff"/>
        <path id="Trazado_158256" data-name="Trazado 158256" d="M2099.287,822.89A102.661,102.661,0,0,1,2121.5,711.836,121.986,121.986,0,0,1,2146.05,693c8.368-5,17.1-9.314,25.694-13.9,8.7-4.646,17.2-9.665,24.768-16.029a139.032,139.032,0,0,0,10.714-10.183,109.719,109.719,0,0,0,7.7-8.719,81.34,81.34,0,0,0,6.35-9.64,96.029,96.029,0,0,0,5.68-11.354,90.931,90.931,0,0,0,6.521-25.927,43.931,43.931,0,0,0,.142-5.964c-.031-.63-1.015-.634-.984,0,.437,8.92-1.895,18.087-4.725,26.477a92.343,92.343,0,0,1-11.485,22.7c-4.82,7-10.981,13.256-17.24,18.964a126.451,126.451,0,0,1-24.676,17.059c-8.4,4.617-17.036,8.784-25.35,13.557a133.919,133.919,0,0,0-25.171,18.005A103.763,103.763,0,0,0,2095.8,816.321q1.141,3.461,2.536,6.83" transform="translate(-993.699 -333.915)" fill="#a6afff"/>
        <g id="Grupo_560523" data-name="Grupo 560523" transform="translate(0 0)">
          <g id="Grupo_560518" data-name="Grupo 560518" transform="translate(0 0.003)">
            <path id="Trazado_158257" data-name="Trazado 158257" d="M-2.573,208.048c12.853-1.455,25.828-3.656,37.684-9.048,9.957-4.529,19.174-11.594,24.779-21.127,2.869-4.881,4.23-10.129,5.364-15.627,1.162-5.629,2.566-11.426,6.89-15.525,7.995-7.577,20.679-7.106,30.581-4.465,6.427,1.714,12.586,4.264,18.915,6.284a66.32,66.32,0,0,0,17.914,3.321,62.141,62.141,0,0,0,33.042-8.187,73.6,73.6,0,0,0,12.326-9.29,77.31,77.31,0,0,0,9.566-10.263,62.132,62.132,0,0,0,12-28.4,57.3,57.3,0,0,0-.9-21.547,57.391,57.391,0,0,0-12.393-25.309,47.433,47.433,0,0,0-5.7-5.487c-.487-.4-1.187.3-.7.7a52.055,52.055,0,0,1,16.272,24.612A60.045,60.045,0,0,1,206.15,90a60.972,60.972,0,0,1-9.165,28.817,77.237,77.237,0,0,1-19.726,20.633,60.263,60.263,0,0,1-32.294,11.373,59.518,59.518,0,0,1-17.539-1.649c-6.335-1.571-12.395-4.032-18.577-6.089-10.105-3.364-21.44-5.508-31.558-.934a20.05,20.05,0,0,0-10.238,10.208c-2.3,5.212-2.753,10.965-4.3,16.4-3.051,10.69-11,19.275-20.23,25.13-10.634,6.747-23.083,9.972-35.409,11.9-3.218.5-6.449.914-9.685,1.28-.622.07-.63,1.056,0,.984Z" transform="translate(3.042 -43.26)" fill="#a6afff"/>
          </g>
          <g id="Grupo_560519" data-name="Grupo 560519" transform="translate(0 0.004)">
            <path id="Trazado_158258" data-name="Trazado 158258" d="M-2.573,201.488C9.815,200.1,22.316,198,33.77,192.873c9.668-4.328,18.656-11.1,24.138-20.3,2.788-4.682,4.121-9.724,5.222-15.015,1.131-5.437,2.5-11.025,6.7-14.962,7.81-7.313,20.152-6.781,29.765-4.215,6.159,1.644,12.071,4.063,18.143,5.984a64.8,64.8,0,0,0,17.356,3.189,60.638,60.638,0,0,0,31.873-7.781,70.912,70.912,0,0,0,12.038-8.961,74.392,74.392,0,0,0,9.324-9.91,59.443,59.443,0,0,0,11.628-27.371,54.532,54.532,0,0,0-.917-20.667,54.92,54.92,0,0,0-11.964-24.182,45.765,45.765,0,0,0-5.543-5.293c-.488-.395-1.189.3-.7.7a49.931,49.931,0,0,1,15.755,23.612,57.264,57.264,0,0,1,3,20.386,58.092,58.092,0,0,1-8.949,27.835A74.383,74.383,0,0,1,171.479,135.7a59.128,59.128,0,0,1-48.127,9.238c-6.074-1.493-11.891-3.824-17.818-5.787-9.826-3.255-20.813-5.361-30.671-.99a19.368,19.368,0,0,0-9.968,9.756c-2.286,5.069-2.7,10.69-4.251,15.982-3,10.257-10.736,18.444-19.632,24.019C30.718,194.363,18.7,197.437,6.8,199.275c-3.116.482-6.244.876-9.377,1.228-.622.07-.63,1.055,0,.984Z" transform="translate(3.043 -43.268)" fill="#a6afff"/>
          </g>
          <g id="Grupo_560520" data-name="Grupo 560520" transform="translate(0 0.002)">
            <path id="Trazado_158259" data-name="Trazado 158259" d="M-2.572,214.608c13.322-1.52,26.774-3.828,39.035-9.49,10.269-4.742,19.735-12.127,25.455-22.025,2.944-5.1,4.314-10.567,5.486-16.282,1.208-5.893,2.712-11.94,7.287-16.182,8.379-7.768,21.472-7.159,31.724-4.346,6.621,1.816,12.968,4.472,19.5,6.553a67.19,67.19,0,0,0,18.373,3.342,63.62,63.62,0,0,0,34.135-8.723,76.778,76.778,0,0,0,12.545-9.621,79.8,79.8,0,0,0,9.875-10.757A64.874,64.874,0,0,0,213.059,97.6a60.005,60.005,0,0,0-.969-22.223,59.834,59.834,0,0,0-12.8-26.321,49.1,49.1,0,0,0-5.854-5.68c-.486-.4-1.186.293-.7.7a54.182,54.182,0,0,1,16.788,25.612,63.035,63.035,0,0,1,3.187,22.1,63.742,63.742,0,0,1-9.382,29.925A80.3,80.3,0,0,1,183.2,143.084a61.753,61.753,0,0,1-33.183,12.02,60.757,60.757,0,0,1-17.932-1.55c-6.615-1.594-12.929-4.172-19.362-6.349-10.448-3.536-22.12-5.867-32.641-1.221A20.775,20.775,0,0,0,69.394,156.4c-2.477,5.444-2.939,11.49-4.53,17.2-3.1,11.114-11.234,20.082-20.779,26.227C33.1,206.9,20.2,210.281,7.42,212.292c-3.32.522-6.654.951-9.993,1.332-.622.071-.629,1.056,0,.984Z" transform="translate(3.042 -43.253)" fill="#a6afff"/>
          </g>
          <g id="Grupo_560521" data-name="Grupo 560521" transform="translate(0 0.001)">
            <path id="Trazado_158260" data-name="Trazado 158260" d="M-2.572,221.169c13.73-1.579,27.594-3.979,40.215-9.853,10.624-4.944,20.387-12.647,26.26-22.93,3.014-5.277,4.414-10.937,5.615-16.842,1.243-6.112,2.786-12.4,7.513-16.814,8.664-8.1,22.225-7.436,32.842-4.48,6.8,1.894,13.326,4.644,20.048,6.8a68.653,68.653,0,0,0,18.841,3.442,65.132,65.132,0,0,0,35.318-9.147,79.542,79.542,0,0,0,12.847-9.968,82.483,82.483,0,0,0,10.113-11.12,67.643,67.643,0,0,0,12.569-30.612,62.83,62.83,0,0,0-1.035-23.2A62.233,62.233,0,0,0,205.4,49.237a50.76,50.76,0,0,0-6.007-5.87c-.484-.4-1.185.291-.7.7,8.336,6.909,14.052,16.354,17.3,26.613a65.931,65.931,0,0,1,3.283,22.96,66.583,66.583,0,0,1-9.593,30.957c-5.3,8.659-12.658,16.078-20.7,22.224a63.274,63.274,0,0,1-34.341,12.593,62.211,62.211,0,0,1-18.661-1.654c-6.733-1.654-13.161-4.292-19.709-6.528-10.729-3.664-22.717-6.105-33.545-1.353A21.511,21.511,0,0,0,71.6,160.747c-2.553,5.656-3.027,11.93-4.667,17.858-3.175,11.479-11.5,20.79-21.326,27.19C34.282,213.169,20.944,216.705,7.729,218.8c-3.422.542-6.859.988-10.3,1.384-.622.072-.629,1.057,0,.984Z" transform="translate(3.041 -43.246)" fill="#a6afff"/>
          </g>
          <g id="Grupo_560522" data-name="Grupo 560522" transform="translate(0)">
            <path id="Trazado_158261" data-name="Trazado 158261" d="M-2.571,227.73c14.206-1.646,28.554-4.154,41.582-10.3,10.933-5.16,20.944-13.187,26.928-23.837,3.095-5.507,4.5-11.411,5.742-17.55,1.268-6.256,2.875-12.677,7.69-17.21,8.968-8.442,23.027-7.708,34.025-4.6,7,1.982,13.713,4.836,20.638,7.055a69.732,69.732,0,0,0,19.563,3.516,66.685,66.685,0,0,0,36.3-9.684A82.911,82.911,0,0,0,203.1,144.7a84.611,84.611,0,0,0,10.314-11.521,70.522,70.522,0,0,0,12.8-31.878,65.545,65.545,0,0,0-1.163-23.824c-2.3-10.226-6.7-20.107-13.57-28.089a52.415,52.415,0,0,0-6.135-6.03c-.483-.4-1.183.289-.7.7,8.567,7.153,14.43,16.907,17.779,27.483a69.273,69.273,0,0,1,3.43,23.725,69.2,69.2,0,0,1-9.731,32.071c-5.344,8.891-12.75,16.418-20.849,22.832a64.749,64.749,0,0,1-35.615,13.523,63.55,63.55,0,0,1-19.18-1.594c-6.944-1.676-13.567-4.4-20.3-6.734-11.156-3.867-23.632-6.526-34.917-1.541A22.2,22.2,0,0,0,73.828,165.03c-2.606,5.774-3.119,12.172-4.739,18.237-3.2,11.975-11.714,21.728-21.907,28.455-11.615,7.665-25.334,11.367-38.939,13.555-3.592.578-7.2,1.05-10.815,1.469-.622.072-.629,1.057,0,.984Z" transform="translate(3.041 -43.24)" fill="#a6afff"/>
          </g>
        </g>
        <circle id="Elipse_4999" data-name="Elipse 4999" cx="8.591" cy="8.591" r="8.591" transform="translate(888.993 22.798)" fill="#f8edeb"/>
        <circle id="Elipse_5000" data-name="Elipse 5000" cx="4.296" cy="4.296" r="4.296" transform="translate(1212.502 385.803)" fill="#f8edeb"/>
        <circle id="Elipse_5001" data-name="Elipse 5001" cx="5.73" cy="5.73" r="5.73" transform="translate(461.517 346.083)" fill="#a6afff"/>
        <circle id="Elipse_5002" data-name="Elipse 5002" cx="5.73" cy="5.73" r="5.73" transform="translate(42.932 163.266)" fill="#a6afff"/>
        <path id="Trazado_158262" data-name="Trazado 158262" d="M397.494,1782.143l1.365,3.457,3.553-1.088-1.852,3.222,3.066,2.1-3.674.561.27,3.706-2.729-2.522-2.729,2.522.27-3.706-3.674-.561,3.066-2.1-1.852-3.222,3.553,1.088Z" transform="translate(-330.507 -1341.431)" fill="#a6afff"/>
        <path id="Trazado_158263" data-name="Trazado 158263" d="M1881.439,1943.311l1.365,3.457,3.553-1.088-1.852,3.222,3.066,2.1-3.674.561.27,3.706-2.729-2.522-2.729,2.522.27-3.706-3.674-.561,3.066-2.1-1.852-3.222,3.553,1.088Z" transform="translate(-1091.162 -1477.731)" fill="#f8edeb"/>
        <path id="Trazado_158264" data-name="Trazado 158264" d="M441.607,282.917l3.438,8.708L454,288.883,449.331,297l7.724,5.289L447.8,303.7l.681,9.337-6.875-6.354-6.875,6.354.681-9.337-9.254-1.414L433.883,297l-4.665-8.117,8.951,2.741Z" transform="translate(-359.934 -245.935)" fill="#a6afff"/>
        <path id="Trazado_158265" data-name="Trazado 158265" d="M2741.432,152.245l1.365,3.457,3.553-1.088-1.852,3.222,3.066,2.1-3.674.561.271,3.706-2.729-2.522L2738.7,164.2l.27-3.706-3.674-.561,3.066-2.1-1.852-3.222,3.553,1.088Z" transform="translate(-1538.823 -135.426)" fill="#a6afff"/>
        <path id="Trazado_158266" data-name="Trazado 158266" d="M2148.742,909.716l3.493,8.848,9.1-2.786-4.74,8.247,7.849,5.374-9.4,1.437.692,9.487-6.986-6.456-6.986,6.456.692-9.487-9.4-1.437,7.849-5.374-4.74-8.247,9.1,2.786Z" transform="translate(-1216.563 -695.491)" fill="#f8edeb"/>
        <path id="Trazado_158267" data-name="Trazado 158267" d="M0,534.921V46.286H1239V534.921" transform="translate(0.469 -45.816)" fill="none"/>
      </g>
    </g>
    <g id="Grupo_560825" data-name="Grupo 560825" transform="translate(0.289 56)">
      <g id="Grupo_560820" data-name="Grupo 560820" transform="translate(125.211 1200.421)">
        <g id="BG" transform="translate(539.5 -414.421)">
          <rect id="Rectángulo_34505" data-name="Rectángulo 34505" width="230" height="230" fill="#fbce55"/>
        </g>
        <g id="Layer_2" data-name="Layer 2" transform="translate(553.613 -400.368)">
          <g id="Grupo_560819" data-name="Grupo 560819">
            <circle id="Elipse_5033" data-name="Elipse 5033" cx="101.062" cy="101.062" r="101.062" fill="#f9b938"/>
            <g id="Grupo_560818" data-name="Grupo 560818" clip-path="url(#clip-path)">
              <g id="Grupo_560817" data-name="Grupo 560817" transform="translate(64.436 56.42)">
                <path id="Trazado_159146" data-name="Trazado 159146" d="M490.553,379.066a34.989,34.989,0,0,0-57.166-27.083,7.335,7.335,0,0,0,.7-3.154c-.147-3.272-3.353-6.46-6.563-2.585-2.463,2.974-9.881,11.437-12.986,13.738a22.836,22.836,0,0,0-2.041,3.034c-.086.273-.181.544-.273.815l-.024-.02c-.226.653-.449,1.308-.69,1.957-1.633,4.4-3.5,8.7-5.376,12.992l-.844,2.618a13.985,13.985,0,0,0-.054,5.323c.914,4.376,1.551,8.8,2.3,13.209-.05.166-.1.333-.137.5-.217.947-.429,1.895-.625,2.847a69.129,69.129,0,0,0-1.348,8.885c-.2,2.725.77,5.124.775,7.634l2.1,23.19-.125,10.927s-3.5,15.62-3.473,15.671l-2.553,21.518,32.581.069,3.284-36.19c2.485-2.179,4.928-4.421,7.505-6.49a41.56,41.56,0,0,0,8.756-10.2l0,0c4.332-5.291,9.013-12.533,14.1-17.137,1.543-1.4,3.172-2.693,4.8-3.987a56.734,56.734,0,0,0,7.759-7.06,2.745,2.745,0,0,0,.928-2.45c-.483-1.5-1.8-2.07-3.422-2.132A34.93,34.93,0,0,0,490.553,379.066Zm-70.016-.108a16.687,16.687,0,0,1-.023-5.312,11.7,11.7,0,0,1,1.01-2.824A34.967,34.967,0,0,0,420.537,378.958Zm5.491,20.271a4.011,4.011,0,0,0-.7.548q-.253-.248-.5-.495c.059-.051.122-.1.179-.151l1.216-.977c.159.244.319.487.484.727Zm28.748,17.893a44.587,44.587,0,0,1-6.9,2.423c-3.751.677-8.995-1.425-13.677-4.795-.594-2.01-1.376-3.944-1.767-4.9a27.641,27.641,0,0,0-1.969-3.9l1.684-.867a34.857,34.857,0,0,0,28.275,8.641A27.647,27.647,0,0,1,454.776,417.122Zm3.9-32.269a4.628,4.628,0,0,0-1.9-1.338c-1.6-.672-4.681-2.044-7.73-3.512a6.575,6.575,0,1,1,9.633,4.85Z" transform="translate(-398.246 -344.057)" fill="#444" opacity="0.24"/>
                <g id="Grupo_560816" data-name="Grupo 560816" transform="translate(0 0.297)">
                  <g id="Grupo_560814" data-name="Grupo 560814">
                    <path id="Trazado_159147" data-name="Trazado 159147" d="M445.737,509.67a6.186,6.186,0,0,0-.321,8.74h0a6.182,6.182,0,0,0,8.738.318l17.235-13.839a6.185,6.185,0,0,0,.322-8.738h0a6.18,6.18,0,0,0-8.737-.318Z" transform="translate(-431.31 -463.654)" fill="#654d3c"/>
                    <path id="Trazado_159148" data-name="Trazado 159148" d="M534.387,495.406a20.739,20.739,0,0,1,3.176.977c2.819,2.1,12.132,6.321,15.368,7.681,4.216,1.773,2.286,5.4-.522,6.389-2.126.749-5.133-.111-7.34-.931a115.872,115.872,0,0,0-12.869-3.8c-.5-.126-1.006-.242-1.515-.34-2.707-1.476-5.125-9.118,2.69-10.009C533.712,495.385,534.049,495.4,534.387,495.406Z" transform="translate(-498.319 -464.607)" fill="#654d3c"/>
                    <path id="Trazado_159149" data-name="Trazado 159149" d="M491.915,586.517a4.015,4.015,0,0,0-1.339,5.519h0a4.017,4.017,0,0,0,5.519,1.338l12.767-6.572a4.016,4.016,0,0,0,1.34-5.52h0a4.017,4.017,0,0,0-5.522-1.339Z" transform="translate(-468.044 -531.345)" fill="#654d3c"/>
                    <path id="Trazado_159150" data-name="Trazado 159150" d="M385.657,663.328c-.026-.051,3.473-15.671,3.473-15.671l.125-10.927-2.1-23.19c-.006-2.51-.973-4.908-.776-7.634a69.161,69.161,0,0,1,1.348-8.885c.2-.952.408-1.9.625-2.847,1.162-4.808,6.489-9.793,15.191-4.182.08,1.265,2.784,3.5,4.415,5.234a26.3,26.3,0,0,1,5.428,8.394c.391.952,1.173,2.887,1.767,4.9,4.834,3.479,10.271,5.617,14.042,4.729-.877,6.81,2.356,12.572,6.652,17.832a43.267,43.267,0,0,1-9.369,11.158c-2.577,2.069-5.02,4.311-7.505,6.49l-3.283,36.19-32.581-.07Z" transform="translate(-383.104 -537.822)" fill="#785f4b"/>
                    <path id="Trazado_159151" data-name="Trazado 159151" d="M431.384,366.035A22.852,22.852,0,0,1,433.426,363c3.106-2.3,10.523-10.764,12.986-13.738,3.21-3.875,6.416-.687,6.563,2.585.112,2.477-1.752,5.371-3.319,7.434a127.4,127.4,0,0,0-8.1,12.344c-.292.487-.575.983-.841,1.487-2.416,2.38-11.236,2.493-9.685-6.022C431.147,366.738,431.273,366.389,431.384,366.035Z" transform="translate(-421.047 -347.077)" fill="#785f4b"/>
                    <path id="Trazado_159152" data-name="Trazado 159152" d="M397.2,464.607a13.993,13.993,0,0,1,.054-5.323l.844-2.618c1.881-4.293,3.743-8.6,5.376-12.992.241-.649.463-1.3.69-1.957a38.488,38.488,0,0,0,9.714,6.26,12.827,12.827,0,0,0-1.4,3.576,18.227,18.227,0,0,0,.088,5.849q.654,5.284,1.307,10.567a8.9,8.9,0,0,0,.676,2.868c4.946,14.47-9.98,20.093-14.641,9.277C398.962,474.952,398.271,469.745,397.2,464.607Z" transform="translate(-394.121 -421.965)" fill="#785f4b"/>
                    <g id="Grupo_560813" data-name="Grupo 560813" transform="translate(18.376)">
                      <g id="Grupo_560811" data-name="Grupo 560811" opacity="0.46" style="mix-blend-mode: multiply;isolation: isolate">
                        <path id="Trazado_159153" data-name="Trazado 159153" d="M507.622,415.522a35.009,35.009,0,1,1,35.01-35.01A35.049,35.049,0,0,1,507.622,415.522Zm0-68.919a33.909,33.909,0,1,0,33.91,33.91A33.948,33.948,0,0,0,507.622,346.6Zm0,41.588a7.679,7.679,0,1,1,7.679-7.679A7.687,7.687,0,0,1,507.622,388.191Zm0-14.258a6.579,6.579,0,1,0,6.578,6.579A6.587,6.587,0,0,0,507.622,373.933Z" transform="translate(-472.613 -345.503)" fill="#9b9b9b"/>
                      </g>
                      <path id="Trazado_159154" data-name="Trazado 159154" d="M509.751,348.18a34.46,34.46,0,1,0,34.46,34.46A34.46,34.46,0,0,0,509.751,348.18Zm0,41.588a7.129,7.129,0,1,1,7.129-7.129A7.129,7.129,0,0,1,509.751,389.768Z" transform="translate(-474.741 -347.63)" fill="url(#linear-gradient)"/>
                      <path id="Trazado_159155" data-name="Trazado 159155" d="M590,449.163a13.728,13.728,0,1,0,13.727,13.728A13.728,13.728,0,0,0,590,449.163Zm0,20.856a7.129,7.129,0,1,1,7.129-7.129A7.129,7.129,0,0,1,590,470.019Z" transform="translate(-554.992 -427.881)" fill="url(#linear-gradient-2)"/>
                      <path id="Trazado_159156" data-name="Trazado 159156" d="M643.15,549.215l.324,27.323a34.511,34.511,0,0,0,8.511-1.143l-6.509-26.577A7.094,7.094,0,0,1,643.15,549.215Z" transform="translate(-608.138 -507.077)" fill="#fff" opacity="0.43"/>
                      <path id="Trazado_159157" data-name="Trazado 159157" d="M528.73,405.864l-17.473-21.041a34.693,34.693,0,0,0-6.61,6.989l22.11,16.087A7.161,7.161,0,0,1,528.73,405.864Z" transform="translate(-498.07 -376.75)" fill="#e6e6e7" opacity="0.43"/>
                      <path id="Trazado_159158" data-name="Trazado 159158" d="M524.609,529.38l-22.34,15.985a34.671,34.671,0,0,0,7.238,8.045l16.337-22.064A7.124,7.124,0,0,1,524.609,529.38Z" transform="translate(-496.181 -491.63)" fill="#fff" opacity="0.34"/>
                      <path id="Trazado_159159" data-name="Trazado 159159" d="M677.5,380.934l-16.836,21.6a7.2,7.2,0,0,1,1.273.946l20.98-17.579A34.769,34.769,0,0,0,677.5,380.934Z" transform="translate(-622.058 -373.66)" fill="#f9f9f9" opacity="0.69"/>
                      <path id="Trazado_159160" data-name="Trazado 159160" d="M691.7,410.433a34.627,34.627,0,0,0-3.857-5.33l-20.98,17.579a7.215,7.215,0,0,1,.749.833Z" transform="translate(-626.985 -392.867)" fill="url(#linear-gradient)"/>
                      <path id="Trazado_159161" data-name="Trazado 159161" d="M694.6,431.067l-24.088,13.081a7.341,7.341,0,0,1,.5.746l24.464-12.232C695.2,432.123,694.91,431.589,694.6,431.067Z" transform="translate(-629.884 -413.5)" fill="#fff" opacity="0.43"/>
                      <path id="Trazado_159162" data-name="Trazado 159162" d="M577.307,433.189A17.007,17.007,0,1,0,594.314,450.2,17.007,17.007,0,0,0,577.307,433.189Zm0,24.892a7.884,7.884,0,1,1,7.884-7.884A7.884,7.884,0,0,1,577.307,458.081Z" transform="translate(-542.298 -415.187)" fill="url(#linear-gradient-4)"/>
                      <g id="Grupo_560812" data-name="Grupo 560812" transform="translate(20.732 20.732)" opacity="0.46" style="mix-blend-mode: multiply;isolation: isolate">
                        <path id="Trazado_159163" data-name="Trazado 159163" d="M587.873,475.04a14.277,14.277,0,1,1,14.277-14.278A14.293,14.293,0,0,1,587.873,475.04Zm0-27.455a13.178,13.178,0,1,0,13.178,13.178A13.193,13.193,0,0,0,587.873,447.585Zm0,20.857a7.679,7.679,0,1,1,7.679-7.679A7.687,7.687,0,0,1,587.873,468.441Zm0-14.258a6.579,6.579,0,1,0,6.578,6.579A6.587,6.587,0,0,0,587.873,454.183Z" transform="translate(-573.596 -446.485)" fill="#9b9b9b"/>
                      </g>
                    </g>
                    <path id="Trazado_159164" data-name="Trazado 159164" d="M603.853,658.848a43.862,43.862,0,0,0,7-2.449c5.431-2.285,9.259-7.068,14.694-9.309,2.471-1.019,10.994-4.554,12.406-.176a2.745,2.745,0,0,1-.928,2.45,56.738,56.738,0,0,1-7.759,7.06c-1.629,1.295-3.259,2.591-4.8,3.987-5.089,4.6-9.769,11.846-14.1,17.137C606.766,671.788,602.123,665.493,603.853,658.848Z" transform="translate(-558.236 -583.334)" fill="#785f4b"/>
                  </g>
                  <g id="Grupo_560815" data-name="Grupo 560815" transform="translate(9.344 128.996)">
                    <path id="Trazado_159165" data-name="Trazado 159165" d="M477.138,1004.373c-.51-.9-.765-1.351-1.276-2.24.057.882.086,1.322.143,2.2C476.458,1004.348,476.684,1004.355,477.138,1004.373Z" transform="translate(-466.162 -996.321)" fill="none"/>
                    <path id="Trazado_159166" data-name="Trazado 159166" d="M458.354,1004.548c-.313-.373-.469-.557-.782-.921.087.368.131.552.218.922C458.015,1004.548,458.128,1004.547,458.354,1004.548Z" transform="translate(-451.627 -997.508)" fill="none"/>
                    <path id="Trazado_159167" data-name="Trazado 159167" d="M513.829,1019.837c2.295,1.894,3.492,2.9,5.69,4.591-.006-.263-.012-.524-.017-.783-2.229-1.724-3.441-2.748-5.769-4.661C513.772,1019.325,513.791,1019.5,513.829,1019.837Z" transform="translate(-496.259 -1009.712)" fill="none"/>
                    <path id="Trazado_159168" data-name="Trazado 159168" d="M514.574,1026.556c2.241,1.825,3.42,2.8,5.558,4.385-.011-.314-.023-.631-.032-.939-2.178-1.656-3.369-2.653-5.646-4.524Z" transform="translate(-496.831 -1014.872)" fill="none"/>
                    <path id="Trazado_159169" data-name="Trazado 159169" d="M470.614,1030.951c-1.005-.086-1.508-.123-2.513-.187.242.213.362.32.6.535.878.062,1.317.1,2.2.174l.047-.1-.333-.427Z" transform="translate(-459.995 -1019.074)" fill="none"/>
                    <path id="Trazado_159170" data-name="Trazado 159170" d="M464.545,1023.04c-.981-.074-1.471-.105-2.451-.152l.127.546c1.107.051,1.661.085,2.769.169Z" transform="translate(-455.221 -1012.815)" fill="none"/>
                    <path id="Trazado_159171" data-name="Trazado 159171" d="M472.4,1014.807c-1.341-.064-2.012-.082-3.351-.088.334.411.5.619.835,1.036,2.436.047,3.657.115,6.091.325.278-.394.418-.59.7-.978-1.711-.17-2.568-.234-4.283-.315Z" transform="translate(-460.745 -1006.323)" fill="none"/>
                    <path id="Trazado_159172" data-name="Trazado 159172" d="M461.408,1014.166c-.551-.049-.827-.071-1.378-.109l.118.5c.667.035,1,.056,1.668.106Z" transform="translate(-453.581 -1005.797)" fill="none"/>
                    <path id="Trazado_159173" data-name="Trazado 159173" d="M462.915,1018.415c-.759-.061-1.138-.087-1.9-.129l.136.582c.89.04,1.336.066,2.228.13C463.2,1018.764,463.1,1018.647,462.915,1018.415Z" transform="translate(-454.367 -1009.158)" fill="none"/>
                    <path id="Trazado_159174" data-name="Trazado 159174" d="M474.7,1021.756h.006v.006c.354.445.53.668.884,1.118,1.51.09,2.266.149,3.776.29.325-.467.488-.7.813-1.162-2.2-.181-3.307-.242-5.511-.3Z" transform="translate(-465.211 -1011.881)" fill="none"/>
                    <path id="Trazado_159175" data-name="Trazado 159175" d="M466.984,1027.554c-1.107-.087-1.66-.124-2.766-.181l.356.309c1.062.06,1.593.1,2.656.185Z" transform="translate(-456.909 -1016.379)" fill="none"/>
                    <path id="Trazado_159176" data-name="Trazado 159176" d="M474.321,1036.312l.072-.008.4-.88c-.638-.056-.957-.082-1.6-.13C473.645,1035.7,473.871,1035.9,474.321,1036.312Z" transform="translate(-464.043 -1022.674)" fill="none"/>
                    <path id="Trazado_159177" data-name="Trazado 159177" d="M459.823,1009.856c-.313,0-.469,0-.781,0,.047.2.071.3.117.5.457.029.686.047,1.144.084C460.111,1010.2,460.015,1010.086,459.823,1009.856Z" transform="translate(-452.795 -1002.455)" fill="none"/>
                    <path id="Trazado_159178" data-name="Trazado 159178" d="M439.956,980.339a.161.161,0,0,1,.075-.2c.816-.382,1.224-.567,2.041-.922a.14.14,0,0,1,.184.087.165.165,0,0,1,0,.129.142.142,0,0,1-.071.07c-.816.353-1.225.538-2.041.918A.136.136,0,0,1,439.956,980.339Zm3.842-.09a.162.162,0,0,1-.012.1.134.134,0,0,1-.094.075c-1.3.259-1.945.408-3.243.732a.14.14,0,0,1-.168-.115.155.155,0,0,1,.106-.185c1.3-.325,1.947-.474,3.243-.733A.149.149,0,0,1,443.8,980.248Zm-1.043-2.753a.166.166,0,0,1,.007.154.137.137,0,0,1-.049.057c-1.164.771-1.747,1.178-2.91,2.012a.133.133,0,0,1-.195-.043.164.164,0,0,1,.042-.213c1.163-.837,1.746-1.245,2.91-2.019A.137.137,0,0,1,442.756,977.5Zm-1.708-.128a.143.143,0,0,1-.029.042c-.66.662-.99,1-1.649,1.68a.132.132,0,0,1-.2,0,.164.164,0,0,1,.007-.218c.659-.683.988-1.021,1.649-1.686a.133.133,0,0,1,.2.01A.167.167,0,0,1,441.048,977.368Zm-.325-2.053a.133.133,0,0,1,.2-.028.164.164,0,0,1,.04.193.113.113,0,0,1-.013.023c-.851,1.217-1.275,1.837-2.123,3.086a.134.134,0,0,1-.2.036.161.161,0,0,1-.028-.214C439.448,977.159,439.873,976.536,440.723,975.315Zm-1.511.392a.158.158,0,0,1,.061.205c-.437.943-.656,1.417-1.092,2.365a.139.139,0,0,1-.189.074.155.155,0,0,1-.061-.2c.436-.949.654-1.424,1.091-2.369A.138.138,0,0,1,439.213,975.707Zm-.873-1.615a.145.145,0,0,1,.176-.109.15.15,0,0,1,.094.188c-.41,1.472-.615,2.21-1.023,3.682a.23.23,0,0,1-.009.026.145.145,0,0,1-.167.085.148.148,0,0,1-.093-.186C437.725,976.3,437.929,975.566,438.339,974.092Zm-1.456,1.138a.157.157,0,0,1,.157-.145.139.139,0,0,1,.123.162l-.24,2.137a.169.169,0,0,1-.014.052.15.15,0,0,1-.143.092.139.139,0,0,1-.122-.162C436.739,976.512,436.787,976.085,436.883,975.23Zm-6.9,11.846a.133.133,0,0,1-.192-.028.149.149,0,0,1,.041-.2c1.271-.938,1.907-1.424,3.182-2.4a.131.131,0,0,1,.193.03.156.156,0,0,1,.007.148.158.158,0,0,1-.048.06C431.887,985.659,431.251,986.142,429.979,987.076Zm2.957-3.181a.162.162,0,0,1-.074.2c-.963.509-1.444.765-2.4,1.272a.128.128,0,0,1-.182-.06.157.157,0,0,1,.074-.2l2.4-1.281A.128.128,0,0,1,432.936,983.9Zm-.2-2.45c-1.042-.226-1.562-.326-2.6-.49a.123.123,0,0,1-.092-.164.164.164,0,0,1,.173-.123c1.035.161,1.555.26,2.6.485a.136.136,0,0,1,.093.175.187.187,0,0,1-.009.025A.152.152,0,0,1,432.736,981.445Zm-1.23,5.524c.715-.74,1.073-1.116,1.79-1.873a.134.134,0,0,1,.2-.005.155.155,0,0,1,.022.168.157.157,0,0,1-.029.043c-.717.756-1.074,1.131-1.79,1.87a.135.135,0,0,1-.2,0A.151.151,0,0,1,431.506,986.969Zm2.348-1.006a.192.192,0,0,1-.013.023c-.816,1.2-1.223,1.795-2.038,2.956a.137.137,0,0,1-.2.035.148.148,0,0,1-.028-.2c.815-1.161,1.222-1.755,2.038-2.956a.137.137,0,0,1,.2-.04A.153.153,0,0,1,433.855,985.963Zm1.983-12.139a.128.128,0,0,1,.148.128c.058,1.175.086,1.764.144,2.941a.169.169,0,0,1-.015.078.157.157,0,0,1-.118.093.131.131,0,0,1-.148-.131c-.057-1.175-.086-1.762-.144-2.935A.168.168,0,0,1,435.838,973.824Zm-1.06,1.608a.124.124,0,0,1,.168.093l.206.937a.17.17,0,0,1-.1.192.126.126,0,0,1-.168-.095c-.083-.374-.124-.561-.206-.934A.173.173,0,0,1,434.778,975.433Zm-1.554-.605a.121.121,0,0,1,.183.049c.28.657.42.99.7,1.66a.16.16,0,0,1,0,.127.171.171,0,0,1-.07.079.124.124,0,0,1-.184-.055c-.28-.668-.42-1-.7-1.652A.174.174,0,0,1,433.224,974.827Zm-.521,1.838a.128.128,0,0,1,.193.014c.183.271.275.408.458.684a.154.154,0,0,1,.007.148.175.175,0,0,1-.048.063.128.128,0,0,1-.193-.017c-.184-.275-.275-.411-.458-.681A.165.165,0,0,1,432.7,976.665Zm-1.713.1a.138.138,0,0,1,.2-.031c.734.683,1.1,1.042,1.842,1.787a.149.149,0,0,1,.023.166.173.173,0,0,1-.029.045.135.135,0,0,1-.2.019c-.738-.742-1.107-1.1-1.841-1.779A.152.152,0,0,1,430.99,976.767Zm2.051,3.037a.149.149,0,0,1-.013.023.141.141,0,0,1-.2.053c-.7-.473-1.048-.7-1.743-1.131a.141.141,0,0,1-.027-.2.147.147,0,0,1,.194-.062c.7.431,1.044.659,1.743,1.134A.146.146,0,0,1,433.041,979.8Zm-3.647-.526a.163.163,0,0,1,.186-.1,34.872,34.872,0,0,1,3.52,1.345.142.142,0,0,1,.061.193.148.148,0,0,1-.188.085,35.087,35.087,0,0,0-3.519-1.346A.125.125,0,0,1,429.394,979.278Zm-.777,2.72a.171.171,0,0,1,.154-.148c1.515-.066,2.279-.071,3.81-.034a.131.131,0,0,1,.122.152.171.171,0,0,1-.014.05.155.155,0,0,1-.141.094c-1.531-.042-2.294-.04-3.81.02A.115.115,0,0,1,428.617,982Zm4.036.635a.164.164,0,0,1-.015.076.159.159,0,0,1-.117.092c-1.043.158-1.564.244-2.6.432a.121.121,0,0,1-.146-.116.166.166,0,0,1,.132-.167c1.038-.193,1.558-.281,2.6-.442A.128.128,0,0,1,432.652,982.633Zm-3.736,2.108a.123.123,0,0,1-.166-.086.16.16,0,0,1,.1-.181c1.483-.527,2.227-.789,3.719-1.289a.127.127,0,0,1,.167.1.161.161,0,0,1-.011.1.158.158,0,0,1-.093.085C431.144,983.962,430.4,984.221,428.916,984.741Zm9.209,5.5c-.3-.281-.451-.421-.752-.7,1.126-.232,1.689-.347,2.817-.571.025.44.038.66.063,1.1C439.4,990.138,438.976,990.173,438.125,990.243Z" transform="translate(-428.616 -973.822)" fill="none"/>
                    <path id="Trazado_159179" data-name="Trazado 159179" d="M448.112,999.063c-.278.557-.416.837-.694,1.4l-.322.446c-1.89-.2-2.838-.269-4.732-.353-.709-1.26-1.065-1.887-1.776-3.121-.548,1.218-.822,1.829-1.368,3.046h-.3c-1.082-1.324-1.624-1.971-2.7-3.2.739,3.089,1.109,4.668,1.847,7.861-.357.438-3.46,3.329-5.553,5.088-.393.084-.589.126-.982.208h1.255a56.358,56.358,0,0,0,5.37-4.91c.115.5.173.749.288,1.25,1.22-.145,1.831-.214,3.052-.342.313-.693.469-1.039.783-1.731-.268-.345-.4-.517-.67-.859,1.3.081,1.944.132,3.24.249-.241.347-.361.522-.6.871.724.685,1.086,1.029,1.809,1.714.679-2.477,1.02-3.707,1.7-6.128l.155-.313c.111,1.006.167,1.508.278,2.51l-.009.012.011.009c.342,3.086.513,4.621.854,7.667h.332c-.26-2.311-.389-3.474-.649-5.81.593.48.889.72,1.481,1.195.242,1.858.364,2.782.606,4.616h.333c-.228-1.717-.342-2.582-.57-4.321.428.341.642.511,1.069.847.186,1.4.279,2.093.465,3.474h.333c-.172-1.267-.258-1.9-.429-3.185.517.4.775.6,1.291.994.121.881.181,1.319.3,2.192h.333c-.107-.762-.16-1.145-.266-1.913.233.175.449.331.631.465-.005-.14.047-.318.042-.457-2.138-1.589-3.432-2.56-5.674-4.385l-.12-1.079c2.277,1.872,3.679,3.017,5.857,4.673,0-.14.048-.255.045-.393-2.2-1.689-3.659-2.866-5.954-4.76-.038-.341-.057-.511-.095-.853,2.327,1.913,3.88,3.191,6.109,4.915,0-.135.042-.269.04-.4-2.25-1.757-3.857-3.054-6.2-4.988C448.258,1000.384,448.21,999.944,448.112,999.063Zm-6.2,1.456c-.453-.017-.68-.025-1.132-.035-.057-.882-.086-1.323-.143-2.2C441.144,999.168,441.4,999.617,441.909,1000.519Zm-5.031-1.933c.313.364.469.549.782.921-.226,0-.339,0-.564,0C437.009,999.139,436.965,998.954,436.878,998.586Zm.3,1.278c.312,0,.469,0,.781,0,.192.23.288.346.48.579-.458-.038-.687-.055-1.144-.084Zm.2.863c.551.038.826.06,1.378.109l.409.5c-.668-.05-1-.071-1.668-.106Zm.2.868c.758.042,1.137.068,1.9.129.187.232.281.349.468.583-.892-.064-1.337-.09-2.228-.13Zm.348,1.491-.127-.546c.979.047,1.47.078,2.451.152l.446.563C439.594,1003.172,439.04,1003.138,437.934,1003.087Zm.309.375c1.106.057,1.659.094,2.766.181l.246.313c-1.063-.087-1.594-.124-2.656-.185Zm3.041,2.636-.072.008c-.45-.41-.675-.614-1.126-1.018.638.048.957.074,1.6.13Zm.6-1.334-.047.1c-.878-.077-1.318-.112-2.2-.174-.242-.215-.362-.322-.6-.535,1,.063,1.508.1,2.513.187v-.008Zm3.2-1.007c-1.509-.141-2.265-.2-3.776-.29-.353-.45-.53-.673-.884-1.118v-.006h-.006l-.034-.043c2.2.053,3.309.115,5.511.3C445.573,1003.057,445.41,1003.289,445.086,1003.757Zm1.074-1.532c-2.433-.21-3.655-.278-6.091-.325-.334-.418-.5-.625-.835-1.036,1.339.006,2.01.024,3.351.088l-.011-.02c1.714.081,2.572.145,4.283.315C446.577,1001.635,446.438,1001.831,446.159,1002.225Z" transform="translate(-430.933 -992.467)" fill="#2c2c2c"/>
                    <path id="Trazado_159180" data-name="Trazado 159180" d="M471.273,1048.186c.3.279.451.419.752.7.851-.07,1.277-.1,2.128-.171-.025-.439-.038-.66-.063-1.1C472.962,1047.839,472.4,1047.954,471.273,1048.186Z" transform="translate(-462.515 -1032.465)" fill="#2c2c2c"/>
                    <path id="Trazado_159181" data-name="Trazado 159181" d="M435.927,1001.515a.148.148,0,0,0,.188-.085.142.142,0,0,0-.061-.193,34.854,34.854,0,0,0-3.52-1.345.162.162,0,0,0-.186.1.125.125,0,0,0,.06.179A35.085,35.085,0,0,1,435.927,1001.515Z" transform="translate(-431.57 -994.535)" fill="#2c2c2c"/>
                    <path id="Trazado_159182" data-name="Trazado 159182" d="M432.547,1012.967a.155.155,0,0,0,.141-.094.172.172,0,0,0,.014-.05.131.131,0,0,0-.122-.152c-1.531-.037-2.294-.033-3.81.034a.171.171,0,0,0-.154.148.115.115,0,0,0,.12.136C430.253,1012.928,431.016,1012.926,432.547,1012.967Z" transform="translate(-428.616 -1004.676)" fill="#2c2c2c"/>
                    <path id="Trazado_159183" data-name="Trazado 159183" d="M433.237,1019.6a.161.161,0,0,0,.011-.1.127.127,0,0,0-.167-.1c-1.492.5-2.236.762-3.719,1.289a.16.16,0,0,0-.1.181.123.123,0,0,0,.166.086c1.484-.52,2.228-.778,3.72-1.273A.158.158,0,0,0,433.237,1019.6Z" transform="translate(-429.123 -1010.036)" fill="#2c2c2c"/>
                    <path id="Trazado_159184" data-name="Trazado 159184" d="M437.656,1025.658a.156.156,0,0,0-.007-.148.131.131,0,0,0-.193-.03c-1.275.973-1.911,1.458-3.182,2.4a.149.149,0,0,0-.041.2.133.133,0,0,0,.192.028c1.272-.934,1.908-1.418,3.183-2.386A.159.159,0,0,0,437.656,1025.658Z" transform="translate(-433.061 -1014.851)" fill="#2c2c2c"/>
                    <path id="Trazado_159185" data-name="Trazado 159185" d="M444.983,1032c-.816,1.2-1.223,1.8-2.038,2.956a.148.148,0,0,0,.027.2.137.137,0,0,0,.2-.035c.815-1.161,1.222-1.756,2.038-2.956a.2.2,0,0,0,.013-.023.153.153,0,0,0-.041-.185A.137.137,0,0,0,444.983,1032Z" transform="translate(-439.981 -1020.001)" fill="#2c2c2c"/>
                    <path id="Trazado_159186" data-name="Trazado 159186" d="M485.424,1005.428a.14.14,0,0,0,.168.115c1.3-.324,1.947-.473,3.243-.732a.134.134,0,0,0,.094-.075.161.161,0,0,0,.012-.1.149.149,0,0,0-.168-.124c-1.3.259-1.946.408-3.243.733A.155.155,0,0,0,485.424,1005.428Z" transform="translate(-473.758 -998.208)" fill="#2c2c2c"/>
                    <path id="Trazado_159187" data-name="Trazado 159187" d="M482.075,993.6a.133.133,0,0,0,.195.043c1.163-.834,1.745-1.241,2.91-2.012a.138.138,0,0,0,.049-.057.166.166,0,0,0-.007-.154.137.137,0,0,0-.195-.054c-1.164.774-1.747,1.182-2.91,2.019A.164.164,0,0,0,482.075,993.6Z" transform="translate(-471.082 -987.75)" fill="#2c2c2c"/>
                    <path id="Trazado_159188" data-name="Trazado 159188" d="M477.168,984.169a.134.134,0,0,0,.2-.035c.847-1.248,1.272-1.868,2.123-3.086a.116.116,0,0,0,.013-.023.164.164,0,0,0-.04-.193.133.133,0,0,0-.2.028c-.851,1.221-1.275,1.843-2.123,3.094A.161.161,0,0,0,477.168,984.169Z" transform="translate(-467.155 -979.368)" fill="#2c2c2c"/>
                    <path id="Trazado_159189" data-name="Trazado 159189" d="M471.067,978.563a.145.145,0,0,0,.167-.085.229.229,0,0,0,.009-.025c.408-1.472.613-2.209,1.023-3.682a.15.15,0,0,0-.094-.188.145.145,0,0,0-.176.109c-.41,1.474-.614,2.212-1.022,3.685A.148.148,0,0,0,471.067,978.563Z" transform="translate(-462.272 -974.422)" fill="#2c2c2c"/>
                    <path id="Trazado_159190" data-name="Trazado 159190" d="M463.438,977.064a.157.157,0,0,0,.118-.093.169.169,0,0,0,.015-.078c-.057-1.177-.086-1.766-.144-2.941a.128.128,0,0,0-.148-.128.168.168,0,0,0-.133.174c.057,1.173.086,1.76.144,2.935A.131.131,0,0,0,463.438,977.064Z" transform="translate(-456.057 -973.822)" fill="#2c2c2c"/>
                    <path id="Trazado_159191" data-name="Trazado 159191" d="M451.356,980.489a.124.124,0,0,0,.184.055.17.17,0,0,0,.07-.079.16.16,0,0,0,0-.127c-.28-.67-.42-1-.7-1.66a.121.121,0,0,0-.183-.049.174.174,0,0,0-.074.207C450.937,979.491,451.077,979.822,451.356,980.489Z" transform="translate(-446.123 -977.625)" fill="#2c2c2c"/>
                    <path id="Trazado_159192" data-name="Trazado 159192" d="M441.841,989.917a.135.135,0,0,0,.2-.019.174.174,0,0,0,.029-.045.149.149,0,0,0-.023-.166c-.739-.745-1.108-1.1-1.842-1.787a.138.138,0,0,0-.2.031.152.152,0,0,0-.007.206C440.734,988.818,441.1,989.175,441.841,989.917Z" transform="translate(-437.633 -984.988)" fill="#2c2c2c"/>
                    <path id="Trazado_159193" data-name="Trazado 159193" d="M486.108,1000.264a.166.166,0,0,0,0-.129.14.14,0,0,0-.184-.087c-.817.354-1.225.54-2.041.922a.161.161,0,0,0-.075.2.136.136,0,0,0,.185.081c.816-.38,1.225-.565,2.041-.918A.142.142,0,0,0,486.108,1000.264Z" transform="translate(-472.471 -994.655)" fill="#2c2c2c"/>
                    <path id="Trazado_159194" data-name="Trazado 159194" d="M481.537,990.035c-.66.665-.99,1-1.649,1.686a.164.164,0,0,0-.007.218.132.132,0,0,0,.2,0c.659-.681.989-1.018,1.649-1.68a.144.144,0,0,0,.029-.042.167.167,0,0,0-.022-.175A.133.133,0,0,0,481.537,990.035Z" transform="translate(-469.326 -986.675)" fill="#2c2c2c"/>
                    <path id="Trazado_159195" data-name="Trazado 159195" d="M473.994,985.586a.139.139,0,0,0,.189-.074c.436-.948.655-1.422,1.092-2.365a.158.158,0,0,0-.061-.205.138.138,0,0,0-.19.072c-.437.945-.656,1.42-1.091,2.369A.156.156,0,0,0,473.994,985.586Z" transform="translate(-464.617 -981.057)" fill="#2c2c2c"/>
                    <path id="Trazado_159196" data-name="Trazado 159196" d="M467.836,982.417a.15.15,0,0,0,.143-.092.167.167,0,0,0,.014-.052l.24-2.137a.139.139,0,0,0-.123-.162.157.157,0,0,0-.157.144c-.1.855-.144,1.282-.24,2.136A.139.139,0,0,0,467.836,982.417Z" transform="translate(-459.686 -978.712)" fill="#2c2c2c"/>
                    <path id="Trazado_159197" data-name="Trazado 159197" d="M458.478,982.854a.17.17,0,0,0,.1-.192l-.206-.937a.124.124,0,0,0-.168-.093.173.173,0,0,0-.105.194c.083.373.124.559.206.934A.126.126,0,0,0,458.478,982.854Z" transform="translate(-452.046 -980.021)" fill="#2c2c2c"/>
                    <path id="Trazado_159198" data-name="Trazado 159198" d="M448.694,988.418a.128.128,0,0,0,.193.017.176.176,0,0,0,.048-.063.154.154,0,0,0-.007-.148c-.184-.276-.275-.413-.458-.684a.128.128,0,0,0-.193-.014.165.165,0,0,0-.041.211C448.419,988.008,448.511,988.144,448.694,988.418Z" transform="translate(-444.19 -984.683)" fill="#2c2c2c"/>
                    <path id="Trazado_159199" data-name="Trazado 159199" d="M440.619,996.485a.147.147,0,0,0-.194.062.141.141,0,0,0,.027.2c.695.43,1.044.657,1.743,1.131a.141.141,0,0,0,.2-.053.152.152,0,0,0,.013-.023.146.146,0,0,0-.041-.181C441.664,997.144,441.315,996.916,440.619,996.485Z" transform="translate(-437.978 -991.819)" fill="#2c2c2c"/>
                    <path id="Trazado_159200" data-name="Trazado 159200" d="M438.426,1007.824a.136.136,0,0,0-.093-.175c-1.042-.225-1.563-.323-2.6-.485a.164.164,0,0,0-.173.123.123.123,0,0,0,.092.164c1.035.164,1.555.264,2.6.49a.152.152,0,0,0,.165-.092A.191.191,0,0,0,438.426,1007.824Z" transform="translate(-434.131 -1000.318)" fill="#2c2c2c"/>
                    <path id="Trazado_159201" data-name="Trazado 159201" d="M436.984,1016.119c-1.043.161-1.564.25-2.6.442a.166.166,0,0,0-.132.167.121.121,0,0,0,.146.116c1.038-.188,1.559-.275,2.6-.432a.159.159,0,0,0,.117-.092.164.164,0,0,0,.015-.076A.128.128,0,0,0,436.984,1016.119Z" transform="translate(-433.093 -1007.434)" fill="#2c2c2c"/>
                    <path id="Trazado_159202" data-name="Trazado 159202" d="M436.658,1023.989a.128.128,0,0,0,.182.06c.96-.507,1.441-.763,2.4-1.272a.161.161,0,0,0,.07-.074.159.159,0,0,0,0-.126.128.128,0,0,0-.183-.063l-2.4,1.281A.157.157,0,0,0,436.658,1023.989Z" transform="translate(-434.998 -1012.503)" fill="#2c2c2c"/>
                    <path id="Trazado_159203" data-name="Trazado 159203" d="M442.712,1030.632c.716-.739,1.074-1.114,1.79-1.87a.157.157,0,0,0,.029-.043.154.154,0,0,0-.022-.168.134.134,0,0,0-.2.005c-.716.757-1.074,1.134-1.79,1.873a.151.151,0,0,0-.007.207A.135.135,0,0,0,442.712,1030.632Z" transform="translate(-439.632 -1017.282)" fill="#2c2c2c"/>
                  </g>
                </g>
              </g>
            </g>
          </g>
        </g>
      </g>
      <g id="Grupo_560823" data-name="Grupo 560823" transform="translate(1479.398 1556.774) rotate(180)">
        <path id="Trazado_158470" data-name="Trazado 158470" d="M627.076,413.833,619.667,401l-7.409,12.833Z" transform="translate(0 52.559)" fill="none" stroke="#010101" stroke-linecap="round" stroke-linejoin="round" stroke-width="1.027"/>
        <path id="Trazado_158471" data-name="Trazado 158471" d="M627.076,439.5l-7.409-12.833L612.257,439.5Z" transform="translate(0 0.613)" fill="#7c0099"/>
        <path id="Trazado_158472" data-name="Trazado 158472" d="M627.076,465.167l-7.409-12.833-7.409,12.833Z" transform="translate(0 -51.333)" fill="none" stroke="#010101" stroke-linecap="round" stroke-linejoin="round" stroke-width="1.027"/>
      </g>
      <g id="Grupo_560824" data-name="Grupo 560824" transform="translate(-136 1655.629) rotate(-90)">
        <path id="Trazado_158470-2" data-name="Trazado 158470" d="M627.076,401l-7.409,12.833L612.257,401Z" transform="translate(0 0)" fill="none" stroke="#010101" stroke-linecap="round" stroke-linejoin="round" stroke-width="1.027"/>
        <path id="Trazado_158471-2" data-name="Trazado 158471" d="M627.076,426.667,619.667,439.5l-7.409-12.833Z" transform="translate(0 -7.663)" fill="#7c0099"/>
        <path id="Trazado_158472-2" data-name="Trazado 158472" d="M627.076,452.333l-7.409,12.833-7.409-12.833Z" transform="translate(0 -15.327)" fill="none" stroke="#010101" stroke-linecap="round" stroke-linejoin="round" stroke-width="1.027"/>
      </g>
      <rect id="Rectángulo_34506" data-name="Rectángulo 34506" width="295" height="29" transform="translate(999.711 1067)" fill="#e7cfcd"/>
      <text id="Son_precisamente_los_sistemas_con_memoría_los_que_presentan_mayores_fallas_puesto_que_los_datos_grabados_pueden_sufrir_alteraciones_por_fenómenos_externos." data-name="Son precisamente los sistemas con memoría los que presentan mayores fallas, puesto que los datos grabados pueden sufrir alteraciones por fenómenos externos." transform="translate(914.711 1072)" fill="#12263f" font-size="16" font-family="Roboto-Regular, Roboto"><tspan x="0" y="17">Son precisamente los sistemas con memoría los que </tspan><tspan x="0" y="41">presentan mayores fallas, puesto que los datos </tspan><tspan x="0" y="65">grabados pueden sufrir alteraciones por fenómenos </tspan><tspan x="0" y="89">externos.</tspan></text>
      <rect id="Rectángulo_34507" data-name="Rectángulo 34507" width="295" height="74" transform="translate(284.711 1126)" fill="#e7cfcd"/>
      <text id="En_un_disco_compacto_por_ejemplo_debido_a_la_alta_manipulación_de_este_se_presentan_muchas_pérdidas_de_datos_rayones_exposición_al_sol_y_altas_temperatura_que_eran_causantes_del_deterioro_de_datos_grabados_lo_que_generaba_fallas_de_funcionamiento_en_" data-name="En un disco compacto, por ejemplo, debido a la alta manipulación de este se presentan muchas pérdidas de datos, rayones, exposición al sol y altas temperatura, que eran causantes del deterioro de datos grabados, lo que generaba fallas de funcionamiento en " transform="translate(284.711 1061)" fill="#12263f" font-size="16" font-family="Roboto-Regular, Roboto"><tspan x="0" y="17">En un disco compacto, por ejemplo, debido a la alta manipulación de </tspan><tspan x="0" y="41">este se presentan muchas pérdidas de datos, rayones, exposición al </tspan><tspan x="0" y="65">sol y altas temperatura, que eran causantes del deterioro de datos </tspan><tspan x="0" y="89">grabados, lo que generaba fallas de funcionamiento en el dispositivo, </tspan><tspan x="0" y="113">es por esto que la mayoría de datos grabados en un CD eran utilizados </tspan><tspan x="0" y="137">para el control de pérdida de datos. </tspan></text>
    </g>
    <g id="Grupo_560826" data-name="Grupo 560826" transform="translate(1962.076 1609.382) rotate(180)">
      <path id="Trazado_158470-3" data-name="Trazado 158470" d="M627.076,401l-7.409,12.833L612.257,401Z" fill="none" stroke="#010101" stroke-linecap="round" stroke-linejoin="round" stroke-width="1.027"/>
      <path id="Trazado_158471-3" data-name="Trazado 158471" d="M627.076,426.667,619.667,439.5l-7.409-12.833Z" transform="translate(0 -4.564)" fill="#7c0099"/>
      <path id="Trazado_158472-3" data-name="Trazado 158472" d="M627.076,452.333l-7.409,12.833-7.409-12.833Z" transform="translate(0 -9.128)" fill="none" stroke="#010101" stroke-linecap="round" stroke-linejoin="round" stroke-width="1.027"/>
    </g>
  </g>
</svg>
